<?xml version="1.0" standalone="no"?>
<!DOCTYPE svg PUBLIC "-//W3C//DTD SVG 20010904//EN"
 "http://www.w3.org/TR/2001/REC-SVG-20010904/DTD/svg10.dtd">
<svg version="1.0" xmlns="http://www.w3.org/2000/svg"
 width="360.000000pt" height="630.000000pt" viewBox="0 0 360.000000 630.000000"
 preserveAspectRatio="xMidYMid meet">

<g transform="translate(0.000000,630.000000) scale(0.100000,-0.100000)"
fill="#000000" stroke="none">
<path d="M2114 6267 l-192 -32 42 -46 c43 -49 207 -311 320 -514 64 -114 67
-123 63 -174 -3 -46 -9 -59 -36 -83 -25 -22 -41 -28 -77 -28 -69 0 -93 19
-160 127 -97 156 -253 428 -291 510 l-36 75 22 45 c12 25 20 48 17 50 -11 11
-666 -150 -981 -242 -432 -125 -646 -210 -724 -285 -81 -78 -96 -152 -51 -240
23 -45 46 -65 147 -129 45 -29 100 -74 121 -99 179 -216 377 -648 523 -1136
29 -98 58 -180 65 -183 7 -2 124 25 261 62 390 104 1888 511 2091 568 l183 51
-6 34 c-10 52 -134 422 -204 612 -159 425 -354 854 -425 937 -20 23 -59 55
-86 72 -139 86 -288 98 -586 48z"/>
<path d="M3295 4410 c-950 -259 -1248 -340 -1705 -465 -294 -81 -562 -155
-595 -164 -58 -16 -60 -18 -57 -46 5 -35 48 -174 61 -193 9 -15 270 53 1726
449 872 238 796 214 789 247 -14 64 -58 193 -68 201 -7 5 -66 -6 -151 -29z"/>
<path d="M2845 3891 c-1559 -426 -1731 -474 -1744 -481 -8 -4 79 -38 215 -84
367 -124 462 -175 638 -346 137 -133 196 -209 255 -335 112 -234 172 -475 231
-923 37 -283 68 -457 120 -667 113 -458 275 -801 451 -952 114 -98 262 -128
367 -74 59 30 112 91 148 168 57 121 67 189 68 438 0 350 -6 373 -404 1515
-109 312 -165 491 -187 592 -26 120 -26 431 1 543 49 211 133 352 378 631 122
139 134 154 121 153 -4 0 -300 -81 -658 -178z"/>
</g>
</svg>
