<?xml version="1.0" standalone="no"?>
<!DOCTYPE svg PUBLIC "-//W3C//DTD SVG 20010904//EN"
 "http://www.w3.org/TR/2001/REC-SVG-20010904/DTD/svg10.dtd">
<svg version="1.0" xmlns="http://www.w3.org/2000/svg"
 width="734.000000pt" height="699.000000pt" viewBox="0 0 734.000000 699.000000"
 preserveAspectRatio="xMidYMid meet">
<metadata>
Created by potrace 1.16, written by Peter Selinger 2001-2019
</metadata>
<g transform="translate(0.000000,699.000000) scale(0.100000,-0.100000)"
fill="#000000" stroke="none">
<path d="M6027 6869 c-26 -5 -71 -20 -100 -33 -97 -44 -771 -444 -845 -502
-124 -98 -228 -259 -274 -429 -18 -67 -22 -108 -22 -250 -1 -162 0 -175 32
-288 36 -131 65 -201 118 -289 20 -32 35 -60 33 -62 -2 -1 -24 -8 -49 -15 -59
-17 -149 -63 -187 -95 -17 -14 -33 -26 -36 -26 -2 0 -7 78 -10 173 -4 132 -10
188 -25 242 -65 222 -200 402 -395 529 -366 239 -805 270 -1204 86 -158 -73
-328 -213 -419 -345 -20 -30 -40 -55 -43 -55 -3 0 -22 31 -43 68 -138 255
-462 465 -789 513 -385 56 -753 -53 -1013 -301 -136 -130 -214 -262 -258 -437
l-23 -88 0 -1370 c0 -1134 2 -1379 14 -1425 16 -64 64 -165 94 -197 11 -13 19
-24 16 -26 -161 -102 -239 -180 -292 -290 -45 -92 -61 -162 -61 -262 0 -243
134 -441 379 -560 50 -24 126 -52 171 -61 l81 -18 -44 -86 c-126 -248 -82
-531 112 -725 146 -146 341 -208 543 -171 263 47 463 258 503 531 18 122 -17
297 -82 402 l-21 33 962 0 c529 0 960 -3 958 -7 -2 -5 -16 -32 -31 -61 -63
-120 -84 -297 -51 -431 43 -175 171 -336 327 -410 102 -48 168 -64 272 -64
243 0 454 138 557 362 83 180 73 398 -24 569 l-29 52 23 0 c55 0 200 45 297
92 91 44 116 61 191 137 128 129 180 249 180 416 0 153 -52 284 -156 394 -35
38 -82 81 -104 96 -22 15 -40 30 -40 34 0 3 20 17 43 31 23 14 89 72 147 130
90 90 112 119 157 205 109 211 116 288 111 1268 l-3 697 105 0 c110 0 240 27
337 70 25 11 198 115 386 231 188 116 375 232 416 257 99 61 181 144 220 223
105 215 65 471 -102 639 -103 104 -181 147 -312 172 -60 11 -66 14 -60 32 3
12 8 55 11 96 27 358 -305 664 -649 599z m200 -311 c97 -45 156 -139 156 -248
0 -113 -34 -166 -143 -230 -143 -83 -430 -249 -520 -300 -169 -95 -184 -115
-159 -217 21 -87 70 -157 131 -189 63 -33 60 -34 573 286 127 79 252 155 278
169 123 62 265 5 336 -136 28 -55 29 -161 2 -218 -27 -58 -68 -92 -230 -189
-79 -48 -160 -98 -180 -111 -124 -79 -416 -257 -458 -278 -220 -112 -478 -52
-689 158 -110 111 -176 225 -218 375 -52 187 -43 358 29 508 54 114 125 178
330 296 94 54 229 133 300 174 261 151 289 166 329 173 50 7 79 3 133 -23z
m-4487 -759 c284 -45 532 -239 613 -479 l22 -65 5 -1140 c3 -627 9 -1147 13
-1156 5 -9 31 -29 60 -45 43 -23 63 -28 127 -28 81 0 135 20 176 66 l22 23 5
1100 c5 1075 6 1101 26 1165 100 317 490 534 880 491 335 -38 609 -240 688
-507 16 -54 18 -147 21 -1156 l3 -1096 38 -35 c86 -78 260 -71 336 13 20 22
20 40 26 809 4 613 8 791 18 810 22 40 93 112 131 131 62 32 138 42 201 26
107 -25 184 -87 215 -173 20 -58 20 -1579 -1 -1678 -45 -216 -235 -408 -485
-492 -82 -27 -92 -28 -285 -28 -193 0 -203 1 -280 28 -198 69 -358 202 -433
358 -22 46 -46 109 -52 139 -8 38 -14 390 -19 1138 l-8 1083 -23 24 c-33 35
-120 65 -189 65 -75 0 -141 -23 -183 -65 l-35 -33 -6 -1084 c-8 -1194 -5
-1137 -72 -1273 -83 -170 -272 -312 -485 -366 -71 -18 -105 -20 -254 -17 -161
4 -176 6 -265 36 -208 72 -367 207 -442 376 -46 105 -47 128 -55 1299 -7 1078
-7 1109 -26 1133 -32 40 -91 64 -177 71 -74 5 -83 4 -144 -25 -37 -17 -71 -40
-78 -54 -10 -18 -14 -299 -18 -1348 l-6 -1325 -22 -35 c-56 -90 -127 -129
-250 -137 -84 -5 -91 -4 -149 25 -71 36 -128 95 -143 149 -8 26 -11 464 -11
1377 0 1191 2 1345 16 1400 63 244 287 434 594 502 69 15 274 17 360 3z m1900
-3230 c24 -45 73 -112 108 -150 l64 -69 -222 0 -222 0 64 69 c35 38 84 105
108 150 25 44 47 80 50 80 3 0 25 -36 50 -80z m-1892 -171 l46 -48 -102 0
-101 0 19 53 c10 28 22 69 25 90 l6 38 31 -43 c17 -24 51 -64 76 -90z m3160
-367 c143 -42 235 -107 287 -202 25 -46 29 -65 30 -129 0 -62 -5 -85 -28 -132
-48 -98 -158 -175 -307 -215 -61 -17 -178 -18 -2010 -16 -1923 2 -1946 2
-2023 22 -133 35 -226 100 -284 199 -30 51 -41 154 -24 219 28 101 133 197
268 243 63 21 88 23 358 27 159 2 292 6 294 9 3 2 761 3 1685 1 l1681 -4 73
-22z m-3401 -1041 c62 -26 135 -100 166 -168 17 -37 22 -66 22 -137 0 -84 -2
-95 -34 -153 -65 -120 -166 -177 -301 -170 -91 5 -162 39 -221 106 -58 67 -82
139 -77 237 8 147 83 248 221 297 66 24 153 19 224 -12z m2946 0 c71 -33 123
-85 158 -155 27 -56 32 -76 32 -142 0 -65 -4 -89 -28 -141 -34 -77 -113 -153
-181 -176 -61 -20 -157 -20 -218 0 -63 22 -148 101 -182 171 -39 79 -40 193
-2 274 46 99 122 164 222 190 49 13 150 2 199 -21z"/>
</g>
</svg>
