<?xml version="1.0" standalone="no"?>
<!DOCTYPE svg PUBLIC "-//W3C//DTD SVG 20010904//EN"
 "http://www.w3.org/TR/2001/REC-SVG-20010904/DTD/svg10.dtd">
<svg version="1.0" xmlns="http://www.w3.org/2000/svg"
 width="1795.000000pt" height="704.000000pt" viewBox="0 0 1795.000000 704.000000"
 preserveAspectRatio="xMidYMid meet">

<g transform="translate(0.000000,704.000000) scale(0.100000,-0.100000)"
fill="#000000" stroke="none">
<path d="M11015 5410 c-66 -4 -600 -8 -1187 -9 -705 -1 -1068 -4 -1068 -11 0
-7 -142 -10 -405 -10 -263 0 -405 3 -405 10 0 7 -597 10 -1770 10 -1144 0
-1770 -3 -1770 -10 0 -6 -135 -11 -357 -14 -457 -5 -904 -21 -1013 -35 -46 -6
-113 -11 -147 -11 -35 0 -63 -4 -63 -9 0 -5 -33 -12 -73 -15 -130 -9 -251 -24
-280 -35 -16 -6 -39 -11 -53 -11 -13 0 -24 -4 -24 -10 0 -5 -7 -10 -15 -10 -8
0 -15 -6 -15 -13 0 -21 -67 -86 -95 -92 -14 -3 -37 -7 -51 -10 -17 -4 -24 -11
-20 -20 13 -34 -4 -44 -95 -51 -49 -3 -92 -11 -95 -15 -3 -5 -39 -9 -80 -9
-43 0 -74 -4 -74 -10 0 -5 -8 -10 -18 -10 -20 0 -52 -33 -52 -55 0 -8 -6 -15
-13 -15 -7 0 -21 -11 -31 -25 -14 -19 -28 -25 -55 -25 -25 0 -40 -6 -49 -20
-7 -12 -8 -20 -2 -20 5 0 10 -11 10 -25 0 -14 5 -25 10 -25 6 0 10 -5 10 -11
0 -14 25 -39 39 -39 6 0 11 -4 11 -10 0 -5 7 -10 15 -10 8 0 41 -27 74 -60 33
-33 67 -60 76 -60 8 0 15 -4 15 -10 0 -5 7 -10 15 -10 17 0 20 -25 5 -35 -5
-3 -10 -13 -10 -21 0 -10 14 -14 55 -14 l55 0 0 -45 c0 -25 5 -45 10 -45 6 0
10 -7 10 -15 0 -8 5 -15 10 -15 6 0 14 -8 17 -17 7 -20 42 -53 55 -53 10 0 58
-46 58 -55 0 -8 27 -35 35 -35 11 0 74 -71 80 -91 4 -10 11 -19 16 -19 5 0 9
-27 9 -60 l0 -60 -55 0 c-30 0 -55 5 -55 10 0 6 -17 10 -37 10 -21 1 -49 7
-63 15 -14 8 -40 14 -57 15 -18 0 -33 5 -33 10 0 6 -45 10 -115 10 -70 0 -115
4 -115 10 0 6 -9 10 -20 10 -11 0 -20 -4 -20 -10 0 -5 -9 -10 -20 -10 -11 0
-20 -3 -20 -8 0 -4 -20 -16 -45 -27 -58 -26 -85 -85 -39 -85 9 0 22 -6 30 -14
16 -17 19 -56 4 -56 -5 0 -10 -9 -10 -20 0 -11 7 -20 15 -20 9 0 21 -11 27
-25 6 -14 15 -25 20 -25 4 0 8 -9 8 -19 0 -11 5 -23 10 -26 11 -7 14 -74 4
-99 -4 -10 -18 -16 -35 -16 -16 0 -29 -4 -29 -8 0 -5 -18 -17 -40 -28 -22 -10
-43 -28 -46 -39 -4 -11 -11 -23 -17 -26 -5 -4 0 -10 12 -14 11 -3 21 -11 21
-16 0 -5 7 -9 15 -9 8 0 15 -7 15 -15 0 -8 5 -15 10 -15 6 0 10 -9 10 -20 0
-11 5 -20 10 -20 16 0 11 -37 -6 -44 -9 -3 -29 -6 -45 -6 -16 0 -29 -4 -29
-10 0 -6 -44 -10 -111 -10 -107 0 -112 -1 -131 -25 -11 -14 -28 -25 -39 -25
-12 0 -19 -7 -19 -19 0 -10 -7 -22 -16 -25 -15 -6 -15 -8 1 -26 10 -11 26 -20
36 -20 10 0 21 -12 28 -30 5 -17 17 -33 26 -36 11 -5 15 -22 15 -75 0 -38 4
-69 8 -69 23 0 42 -92 22 -105 -18 -11 -10 -47 14 -69 14 -11 31 -39 38 -61 9
-29 19 -41 36 -43 12 -2 22 -8 22 -13 0 -5 11 -9 25 -9 14 0 25 5 25 10 0 6
69 10 187 10 104 0 246 7 323 16 164 19 347 14 458 -11 27 -6 30 -41 4 -49
-10 -3 -24 -15 -32 -27 -29 -41 -80 -89 -95 -89 -8 0 -15 -4 -15 -10 0 -5 -16
-10 -35 -10 -31 0 -35 -3 -35 -25 0 -14 5 -25 10 -25 6 0 10 -8 10 -17 0 -16
107 -123 123 -123 5 0 29 -20 53 -45 23 -25 52 -45 63 -45 24 0 26 -11 9 -41
-10 -17 -10 -23 0 -26 6 -3 12 -13 12 -24 0 -23 74 -99 95 -99 8 0 15 -4 15
-10 0 -5 6 -10 13 -10 7 0 21 -12 32 -26 38 -51 53 -64 72 -64 11 0 28 -9 39
-21 16 -17 16 -22 4 -30 -24 -15 24 -49 70 -49 38 0 55 -16 44 -43 -2 -7 2
-21 10 -32 12 -17 18 -18 52 -8 91 27 304 37 837 40 341 2 547 0 547 -6 0 -5
9 -13 21 -16 11 -4 24 -18 29 -31 6 -14 18 -27 27 -30 10 -3 33 -13 51 -21 28
-14 32 -21 30 -47 -3 -29 -1 -31 36 -34 41 -4 72 -25 61 -43 -4 -6 2 -19 14
-30 17 -16 35 -19 105 -19 55 0 86 -4 88 -12 5 -15 1451 -15 1456 1 3 8 134
11 423 11 254 0 419 4 419 9 0 6 103 11 248 14 351 5 886 29 890 39 2 4 100 8
218 8 128 0 214 4 214 9 0 6 94 12 228 14 348 6 867 29 870 38 2 5 91 9 198 9
123 0 194 4 194 10 0 6 58 10 153 10 85 0 178 5 208 10 74 14 398 32 667 37
128 2 222 8 222 13 0 6 129 11 318 13 397 4 936 25 982 37 19 6 137 10 263 10
140 0 227 4 227 10 0 6 108 11 278 13 471 7 1045 26 1089 37 23 5 112 10 197
10 97 0 156 4 156 10 0 6 16 10 36 10 29 0 44 7 70 35 18 19 42 35 53 35 12 0
21 5 21 10 0 6 14 10 31 10 35 0 46 10 73 63 11 20 23 37 28 37 4 0 8 9 8 19
0 11 5 21 12 23 9 3 9 11 0 34 -10 23 -24 32 -70 47 -31 9 -61 17 -66 17 -12
0 -55 50 -62 73 -3 9 -10 17 -15 17 -5 0 -9 10 -9 21 0 21 2 22 83 13 185 -19
716 0 725 27 2 5 8 9 14 9 28 0 39 31 37 105 -2 41 -7 75 -11 75 -4 0 -8 5 -8
11 0 6 -7 17 -15 25 -8 9 -15 26 -15 40 0 13 -4 24 -8 24 -4 0 -9 19 -9 42 -1
24 -7 44 -13 46 -13 5 -13 52 0 52 6 0 10 9 10 20 0 11 -4 20 -10 20 -5 0 -10
6 -10 13 0 8 -11 20 -25 27 -22 12 -25 20 -25 68 0 61 -15 81 -62 82 -16 0
-28 5 -28 10 0 6 -12 10 -26 10 -36 0 -134 29 -134 40 0 5 -12 20 -26 34 -40
36 -24 46 77 46 53 0 89 4 89 10 0 6 39 10 97 10 53 0 110 4 127 9 17 5 58 14
91 20 95 15 119 23 136 43 9 10 23 18 32 18 8 0 17 7 21 15 3 8 15 15 26 15
11 0 20 5 20 10 0 6 23 10 50 10 28 0 50 5 50 10 0 6 22 10 49 10 79 0 81 2
81 84 0 58 -4 76 -20 94 -11 12 -20 35 -20 52 l0 30 60 0 c33 0 60 4 60 10 0
6 20 10 43 10 44 0 99 21 126 47 10 11 12 33 9 84 -4 57 -9 73 -27 85 -12 9
-21 26 -21 40 0 13 -4 24 -10 24 -5 0 -10 24 -10 53 0 41 -5 59 -21 76 -12 13
-18 26 -13 30 5 3 15 14 23 24 12 15 11 20 -12 41 -15 14 -36 27 -47 31 -20 6
-29 45 -10 45 6 0 10 16 10 35 l0 35 -104 0 c-73 0 -106 4 -108 12 -5 14 -135
13 -174 -2 -35 -14 -495 -13 -531 1 -28 11 -145 26 -265 35 -38 3 -68 10 -68
15 0 5 -21 9 -46 9 -41 0 -45 2 -42 23 3 19 10 22 52 25 27 2 54 9 60 15 21
22 46 66 46 81 0 8 5 16 12 18 16 6 13 78 -4 89 -7 5 -34 9 -60 9 -27 0 -48 5
-48 10 0 6 -7 10 -15 10 -8 0 -15 5 -15 11 0 11 -88 99 -100 99 -21 0 -53 43
-52 70 0 20 -4 30 -14 30 -8 0 -14 5 -14 10 0 6 -11 10 -25 10 -15 0 -36 11
-49 25 l-23 25 -202 0 c-215 0 -231 3 -231 49 0 12 -6 21 -15 21 -8 0 -15 5
-15 10 0 6 -16 10 -35 10 -43 0 -74 19 -142 88 -28 28 -56 52 -62 52 -6 0 -11
4 -11 9 0 5 -9 13 -21 16 -17 6 -20 13 -16 34 5 24 1 29 -39 47 -24 10 -44 22
-44 27 0 4 -7 7 -15 7 -8 0 -15 4 -15 8 0 8 -118 32 -230 48 -25 3 -102 8
-172 10 -71 3 -128 9 -128 14 0 5 -465 11 -1052 14 -579 4 -1145 8 -1258 10
-113 2 -259 0 -325 -4z m1445 -1850 l0 -510 -100 0 -100 0 0 510 0 510 100 0
100 0 0 -510z m-3807 460 c73 -81 -13 -190 -126 -159 -26 7 -44 21 -57 42 -24
39 -25 59 -4 98 33 65 135 75 187 19z m-4372 -27 c35 -16 79 -42 96 -57 36
-31 99 -151 109 -208 l6 -38 -106 0 -106 0 -5 28 c-19 93 -68 135 -163 140
-92 4 -127 -15 -167 -94 -30 -59 -30 -59 -30 -234 0 -167 1 -177 25 -225 35
-71 76 -95 159 -95 97 0 154 41 170 123 l7 32 107 3 c59 1 107 -1 107 -6 0
-28 -34 -128 -54 -160 -72 -115 -198 -169 -370 -159 -238 13 -361 163 -373
452 -10 246 65 418 213 491 78 38 107 44 215 40 82 -2 105 -7 160 -33z m6877
2 c105 -47 182 -149 205 -272 l7 -33 -109 0 -108 0 -6 42 c-12 88 -73 131
-179 126 -82 -4 -113 -24 -148 -94 -23 -45 -25 -62 -28 -211 -4 -193 7 -249
63 -303 32 -31 42 -35 105 -38 43 -3 82 1 100 8 42 18 79 65 86 111 l7 39 107
0 107 0 -8 -47 c-31 -172 -179 -283 -375 -283 -105 0 -166 16 -235 62 -115 77
-168 192 -176 383 -9 198 26 328 113 425 79 87 171 122 314 117 78 -3 106 -9
158 -32z m-4850 -137 l3 -88 60 0 60 0 -3 -72 -3 -73 -57 -3 -58 -3 0 -191 c0
-223 2 -228 82 -228 l48 0 0 -69 c0 -43 -5 -73 -12 -77 -6 -4 -47 -10 -90 -12
-132 -8 -204 36 -227 138 -6 25 -11 134 -11 243 l0 197 -45 0 -45 0 0 75 0 75
45 0 45 0 0 83 c0 46 3 87 7 91 4 4 50 5 103 4 l95 -3 3 -87z m-558 -89 c98
-21 177 -97 193 -186 l7 -33 -105 0 c-99 0 -105 1 -105 20 0 36 -44 70 -89 70
-76 0 -112 -34 -97 -93 7 -30 37 -43 156 -73 148 -37 220 -93 235 -183 15 -88
-41 -179 -138 -222 -45 -21 -67 -24 -167 -24 -105 0 -119 2 -165 27 -82 43
-145 125 -145 188 0 19 6 20 93 20 l93 0 13 -35 c16 -44 54 -65 119 -65 76 0
117 40 96 95 -9 23 -48 41 -144 65 -219 56 -297 162 -225 307 55 110 205 159
375 122z m1221 -16 c102 -46 166 -134 189 -263 32 -177 -38 -346 -174 -418
-46 -25 -61 -27 -161 -27 -100 0 -115 2 -160 27 -67 35 -112 81 -141 144 -71
151 -49 355 49 461 71 77 144 104 267 100 59 -2 99 -10 131 -24z m792 16 c21
-5 54 -27 75 -50 l38 -39 25 26 c38 42 116 74 180 74 100 0 158 -33 202 -115
21 -38 22 -55 25 -327 l3 -288 -100 0 -100 0 -3 261 -3 261 -28 24 c-46 40
-140 25 -167 -25 -6 -12 -10 -118 -10 -270 l0 -251 -105 0 -105 0 0 260 0 261
-25 24 c-42 43 -129 30 -172 -25 -9 -11 -12 -85 -13 -267 l0 -253 -100 0 -100
0 0 360 0 360 94 0 93 0 7 -40 6 -41 39 33 c21 18 54 38 72 44 43 16 123 17
172 3z m2178 -6 c38 -12 69 -32 105 -68 66 -66 94 -143 94 -262 l0 -83 -219 0
c-121 0 -222 -4 -225 -9 -10 -16 39 -96 73 -118 61 -41 180 -26 239 29 l22 22
45 -50 c24 -27 44 -54 45 -60 0 -18 -69 -74 -119 -98 -63 -29 -232 -30 -306
-2 -62 24 -139 96 -171 158 -62 123 -46 323 36 438 73 102 241 148 381 103z
m1967 1 c80 -26 142 -80 182 -158 35 -68 35 -71 35 -195 0 -123 -1 -128 -33
-193 -39 -80 -93 -129 -171 -159 -46 -17 -72 -20 -147 -17 -116 5 -187 36
-244 110 -104 131 -107 372 -7 508 34 46 113 97 171 111 55 13 163 9 214 -7z
m1170 -14 c252 -110 254 -560 3 -682 -34 -17 -69 -23 -136 -26 -121 -5 -189
19 -261 93 -72 73 -97 141 -98 265 -1 191 70 310 217 362 72 26 202 20 275
-12z m722 -71 l0 -101 -31 7 c-48 11 -116 -4 -149 -31 l-30 -26 0 -239 0 -239
-105 0 -105 0 0 360 0 360 95 0 95 0 6 -42 7 -41 21 25 c36 44 86 68 144 68
l52 0 0 -101z m528 71 c61 -26 114 -82 130 -139 19 -62 21 -61 -93 -61 -99 0
-105 1 -105 20 0 12 -11 32 -25 45 -51 52 -165 21 -165 -45 0 -41 35 -64 137
-89 123 -31 179 -58 218 -104 86 -100 39 -248 -98 -308 -79 -34 -221 -39 -301
-9 -95 36 -175 125 -176 198 0 21 3 22 93 22 l93 0 13 -35 c16 -44 54 -65 119
-65 76 0 117 40 96 95 -9 23 -48 41 -144 65 -140 36 -203 77 -235 152 -48 116
31 238 180 279 58 16 206 4 263 -21z m-9528 -234 l0 -254 26 -31 c23 -28 32
-31 79 -31 43 0 60 5 84 26 l31 26 0 259 0 259 105 0 105 0 0 -360 0 -360 -94
0 c-99 0 -106 3 -106 51 0 18 -3 17 -37 -9 -49 -38 -93 -52 -165 -52 -70 0
-121 19 -166 63 -55 54 -62 96 -62 399 l0 268 100 0 100 0 0 -254z m3870 -106
l0 -360 -100 0 -100 0 0 360 0 360 100 0 100 0 0 -360z m720 300 l0 -60 -165
-218 -165 -217 170 -3 170 -2 0 -80 0 -80 -300 0 -300 0 0 59 0 58 165 219
165 219 -160 3 -160 2 0 74 c0 40 3 76 7 79 3 4 134 7 290 7 l283 0 0 -60z"/>
<path d="M6762 3608 c-12 -6 -32 -27 -45 -47 -19 -32 -22 -49 -22 -151 0 -91
4 -122 18 -147 47 -87 180 -84 223 4 23 48 30 169 15 239 -16 71 -63 114 -124
113 -23 0 -52 -5 -65 -11z"/>
<path d="M9762 3607 c-26 -12 -62 -75 -62 -107 0 -19 6 -20 120 -20 l120 0 0
31 c0 39 -26 84 -57 98 -30 14 -91 13 -121 -2z"/>
<path d="M11724 3601 c-46 -28 -69 -96 -68 -196 1 -144 41 -205 136 -205 43 0
54 4 83 33 22 22 36 48 44 85 35 166 -19 302 -120 302 -26 0 -57 -8 -75 -19z"/>
<path d="M12845 3587 c-43 -43 -58 -100 -53 -202 6 -126 48 -185 132 -185 89
0 128 52 134 182 6 112 -9 168 -55 208 -27 24 -43 30 -79 30 -39 0 -51 -5 -79
-33z"/>
</g>
</svg>
