<?xml version="1.0" standalone="no"?>
<!DOCTYPE svg PUBLIC "-//W3C//DTD SVG 20010904//EN"
 "http://www.w3.org/TR/2001/REC-SVG-20010904/DTD/svg10.dtd">
<svg version="1.0" xmlns="http://www.w3.org/2000/svg"
 width="1652.000000pt" height="642.000000pt" viewBox="0 0 1652.000000 642.000000"
 preserveAspectRatio="xMidYMid meet">

<g transform="translate(0.000000,642.000000) scale(0.100000,-0.100000)"
fill="#000000" stroke="none">
<path d="M10180 4960 c0 -9 -1430 -20 -2510 -20 -212 0 -1082 1 -1935 1 -921
0 -1688 -4 -1890 -10 -911 -29 -1013 -34 -1185 -60 -41 -7 -106 -16 -145 -21
-180 -23 -214 -34 -237 -80 -23 -45 -62 -70 -108 -70 -26 0 -30 -3 -30 -29 0
-28 -1 -28 -72 -35 -240 -22 -253 -25 -290 -70 -10 -12 -28 -33 -40 -48 -17
-21 -32 -27 -59 -28 -24 0 -39 -5 -43 -16 -13 -33 56 -133 92 -134 6 0 12 -4
12 -10 0 -5 4 -10 9 -10 5 0 30 -20 55 -44 25 -24 54 -47 66 -51 20 -6 29 -45
10 -45 -5 0 -10 -4 -10 -10 0 -5 23 -12 50 -16 46 -6 50 -9 50 -33 0 -15 10
-41 23 -58 12 -17 29 -41 37 -52 8 -12 21 -21 30 -21 8 0 29 -16 45 -36 56
-67 83 -94 93 -94 5 0 15 -13 22 -30 7 -16 16 -30 21 -30 15 0 11 -100 -3
-101 -32 -4 -94 4 -102 12 -6 5 -27 9 -47 9 -21 0 -41 5 -44 10 -3 6 -22 10
-41 10 -19 0 -34 5 -34 10 0 6 -42 10 -105 10 -63 0 -105 4 -105 10 0 6 -7 10
-15 10 -8 0 -15 -4 -15 -10 0 -5 -7 -10 -15 -10 -8 0 -15 -4 -15 -10 0 -5 -9
-10 -20 -10 -11 0 -20 -4 -20 -10 0 -5 -9 -10 -20 -10 -11 0 -20 -7 -20 -15 0
-8 -4 -15 -10 -15 -22 0 -8 -28 20 -40 21 -9 30 -19 30 -36 0 -13 -4 -24 -10
-24 -5 0 -10 -9 -10 -20 0 -13 7 -20 18 -20 18 0 42 -37 42 -65 0 -7 4 -15 10
-17 5 -1 12 -19 14 -38 5 -39 -15 -70 -46 -70 -10 0 -18 -4 -18 -10 0 -5 -9
-10 -20 -10 -11 0 -20 -4 -20 -10 0 -5 -6 -10 -14 -10 -8 0 -18 -9 -21 -20 -3
-11 -11 -20 -16 -20 -5 0 -9 -4 -9 -10 0 -5 7 -10 16 -10 19 0 64 -48 64 -67
0 -7 5 -13 10 -13 12 0 13 -37 1 -44 -4 -3 -68 -10 -141 -16 -113 -8 -135 -13
-150 -30 -9 -11 -25 -20 -34 -20 -9 0 -16 -8 -16 -19 0 -11 -5 -21 -12 -23
-21 -7 0 -38 27 -38 19 0 25 -5 25 -23 0 -12 9 -29 20 -37 16 -11 20 -26 20
-68 0 -34 5 -59 15 -68 23 -23 29 -63 15 -90 -11 -20 -11 -28 0 -49 7 -14 17
-25 21 -25 5 0 13 -18 19 -40 8 -29 16 -40 30 -40 10 0 20 -6 22 -12 4 -10 15
-10 54 0 30 7 125 12 244 12 121 0 196 4 198 10 5 13 382 14 382 1 0 -6 15
-11 32 -13 33 -3 56 -38 25 -38 -8 0 -36 -24 -62 -54 -36 -42 -56 -56 -91 -65
-66 -17 -58 -52 30 -134 28 -26 70 -65 93 -87 24 -22 49 -40 58 -40 18 0 20
-37 3 -42 -9 -3 -8 -9 5 -22 9 -10 17 -21 17 -25 0 -14 66 -81 79 -81 7 0 34
-22 61 -50 27 -27 56 -50 65 -50 22 0 54 -32 37 -38 -17 -5 -15 -29 4 -36 9
-3 30 -6 49 -6 34 0 60 -21 52 -42 -2 -7 -1 -20 4 -29 6 -13 17 -14 56 -8 140
23 290 29 735 29 319 0 495 -4 510 -11 13 -5 31 -23 40 -40 12 -20 25 -29 43
-29 14 0 25 -4 25 -10 0 -5 7 -10 15 -10 18 0 18 -1 5 -34 -9 -24 -7 -25 32
-28 40 -3 44 -6 68 -58 19 -40 271 -53 875 -47 540 6 1242 22 1360 31 38 4
210 11 380 16 171 6 400 15 510 21 473 26 553 30 790 39 138 5 357 12 488 16
130 3 237 10 237 15 0 5 79 9 175 9 104 0 175 4 175 10 0 5 70 11 163 14 89 3
241 10 337 16 363 21 545 29 875 39 187 5 387 12 445 15 58 3 222 10 365 16
143 6 350 15 460 20 252 13 662 29 1055 41 470 15 660 29 660 50 0 5 5 9 11 9
7 0 19 8 28 18 20 21 58 40 90 44 24 3 63 53 91 116 14 32 -6 72 -37 72 -12 0
-23 5 -23 10 0 6 -14 10 -31 10 -32 0 -79 40 -79 68 0 6 -4 12 -10 12 -5 0
-10 9 -10 20 0 20 3 21 133 13 174 -10 251 -9 434 7 131 11 155 16 177 35 20
17 26 32 26 61 0 40 -17 115 -29 124 -12 9 -31 76 -31 108 0 18 -4 32 -9 32
-17 0 -21 32 -6 46 21 22 19 28 -20 63 -31 27 -35 35 -30 64 7 36 -19 77 -49
77 -9 0 -24 4 -34 9 -9 5 -45 15 -79 22 -35 7 -63 16 -63 20 0 3 -11 18 -26
34 -14 15 -22 30 -19 34 6 6 76 13 265 26 52 3 104 10 115 15 11 5 43 11 70
14 73 6 108 17 126 38 9 10 24 18 33 18 9 0 16 5 16 10 0 6 7 10 15 10 8 0 15
4 15 9 0 9 37 16 130 27 92 10 90 8 90 69 0 54 -15 105 -32 105 -4 0 -8 13 -8
29 0 30 1 31 135 47 44 6 102 30 124 51 19 20 9 123 -15 151 -20 24 -44 94
-44 131 0 14 -7 32 -16 42 -15 16 -14 19 5 40 l20 22 -24 21 c-13 12 -34 29
-47 38 -16 12 -19 20 -11 25 12 8 16 26 14 56 -1 15 -12 17 -91 17 -51 0 -98
5 -109 12 -14 9 -35 9 -89 0 -88 -15 -548 -16 -557 -2 -3 6 -37 10 -76 10 -39
0 -69 4 -69 10 0 6 -30 10 -70 10 -38 0 -70 4 -70 9 0 6 -17 11 -37 13 -26 2
-38 8 -38 18 0 11 13 16 49 18 47 3 76 19 76 41 0 13 21 53 32 61 8 6 12 33
10 68 -2 20 -7 22 -52 22 -27 0 -50 5 -50 10 0 6 -5 10 -11 10 -12 0 -79 69
-79 81 0 4 -9 11 -20 14 -31 10 -70 53 -64 70 8 19 -19 45 -47 45 -12 0 -30
10 -40 21 -18 21 -26 22 -199 20 -188 -2 -210 3 -210 42 0 16 -57 47 -85 47
-26 0 -53 18 -105 71 -26 27 -51 49 -54 49 -18 0 -48 41 -43 59 3 15 -3 23
-25 32 -17 7 -45 22 -63 34 -34 24 -60 30 -190 46 -209 26 -395 31 -1277 35
-616 3 -948 8 -948 14 0 6 -63 10 -165 10 -101 0 -165 -4 -165 -10z m-2779
-1235 c55 -29 64 -92 20 -136 -54 -54 -158 -32 -175 37 -21 81 74 141 155 99z
m4018 -11 c25 -21 31 -33 31 -65 0 -59 -34 -89 -100 -89 -63 0 -100 30 -100
82 0 86 101 129 169 72z m-7939 -27 c82 -29 152 -105 179 -192 12 -37 21 -71
21 -76 0 -5 -42 -9 -94 -9 l-94 0 -10 43 c-7 24 -24 55 -42 72 -29 28 -36 30
-112 30 l-80 0 -34 -39 c-45 -52 -57 -116 -52 -280 6 -203 43 -261 168 -260
89 1 134 35 154 117 l6 27 96 0 95 0 -7 -37 c-20 -107 -93 -196 -192 -234 -76
-29 -214 -32 -289 -6 -65 23 -140 89 -176 156 -73 133 -75 378 -6 527 77 163
276 231 469 161z m6101 -7 c112 -35 205 -131 243 -253 14 -46 17 -82 14 -180
-3 -112 -6 -127 -34 -188 -42 -88 -93 -142 -168 -179 -80 -40 -160 -51 -326
-48 l-135 3 -3 433 -2 432 174 0 c146 0 184 -3 237 -20z m-4271 -120 l0 -80
55 0 55 0 0 -65 0 -65 -55 0 -55 0 0 -162 c0 -198 5 -212 73 -216 l48 -3 -3
-67 -3 -67 -53 -9 c-59 -10 -143 4 -181 31 -13 8 -32 34 -42 57 -16 36 -19 67
-19 239 l0 197 -45 0 -45 0 0 65 0 65 45 0 45 0 0 80 0 80 90 0 90 0 0 -80z
m-436 -104 c64 -31 103 -80 113 -140 l6 -36 -92 0 c-88 0 -91 1 -97 24 -10 39
-41 61 -89 61 -52 0 -85 -26 -85 -66 0 -38 26 -54 130 -80 158 -39 219 -87
228 -180 13 -132 -129 -232 -306 -216 -133 13 -220 80 -246 190 l-6 27 89 0
89 0 5 -30 c8 -37 50 -60 109 -60 56 0 88 22 88 61 0 38 -38 62 -131 83 -83
19 -160 56 -188 92 -78 99 -26 242 104 287 78 27 205 19 279 -17z m1051 2 c86
-45 132 -111 155 -222 22 -107 -8 -242 -70 -318 -17 -20 -56 -49 -88 -65 -49
-24 -69 -28 -142 -28 -138 1 -223 53 -276 167 -25 55 -28 75 -29 158 0 128 21
187 90 256 66 67 119 85 230 81 62 -3 91 -9 130 -29z m708 18 c18 -7 45 -28
60 -46 l27 -32 39 35 c51 46 99 61 179 54 71 -5 103 -23 139 -76 36 -53 44
-121 41 -356 l-3 -220 -90 0 -90 0 -5 236 c-4 177 -8 240 -19 252 -34 42 -136
24 -160 -29 -7 -16 -11 -102 -11 -245 l0 -220 -87 3 -88 3 -5 236 c-4 175 -8
240 -18 252 -29 35 -121 29 -154 -10 -10 -12 -14 -76 -18 -247 l-5 -231 -87
-3 -88 -3 0 326 0 325 85 0 c81 0 85 -1 85 -22 0 -41 14 -51 36 -27 47 53 165
75 237 45z m1948 -1 c62 -21 109 -63 144 -126 25 -47 30 -67 33 -151 l4 -98
-201 0 c-139 0 -201 -3 -201 -11 0 -28 35 -81 67 -100 50 -31 147 -24 200 14
l38 28 42 -48 42 -48 -27 -28 c-14 -15 -51 -40 -82 -55 -48 -24 -67 -27 -145
-26 -109 1 -171 24 -233 87 -67 69 -87 124 -87 242 0 89 4 107 29 163 35 75
99 136 165 156 61 19 157 19 212 1z m1773 -6 c66 -24 127 -87 151 -157 9 -26
19 -84 22 -129 l6 -83 -207 0 c-113 0 -206 -2 -206 -5 0 -22 33 -76 59 -98 28
-23 42 -27 95 -27 52 0 70 5 108 29 l47 30 41 -46 42 -45 -32 -33 c-73 -76
-228 -103 -346 -62 -136 47 -218 190 -199 350 17 152 90 249 215 288 50 15
148 9 204 -12z m666 -9 c25 -12 53 -30 64 -39 25 -22 56 -85 56 -116 0 -25 0
-25 -87 -25 l-88 0 -15 33 c-21 45 -62 63 -111 48 -38 -11 -59 -35 -59 -65 0
-28 42 -55 109 -70 137 -31 206 -68 236 -126 21 -40 19 -118 -3 -160 -61 -116
-290 -156 -428 -75 -52 30 -104 104 -104 147 l0 28 85 0 c77 0 85 -2 85 -19 0
-11 14 -31 31 -45 59 -50 169 -28 169 33 0 41 -24 56 -130 86 -166 46 -220 94
-220 194 0 58 10 82 49 124 54 59 113 77 231 73 64 -2 97 -9 130 -26z m918 -2
l40 -27 6 24 c6 24 10 25 86 25 l80 0 0 -341 c0 -233 -4 -354 -12 -381 -17
-56 -78 -121 -140 -149 -77 -34 -230 -34 -305 -1 -28 13 -61 34 -73 47 l-22
24 37 50 c20 28 39 51 42 51 2 0 20 -12 40 -27 28 -21 49 -28 97 -31 37 -2 71
2 86 10 36 19 70 76 70 116 0 34 0 34 -22 18 -123 -89 -296 -35 -359 112 -43
99 -41 261 2 362 24 57 94 125 143 140 17 5 61 8 97 7 53 -2 75 -8 107 -29z
m784 20 c48 -14 93 -64 110 -120 8 -29 12 -121 13 -283 l0 -240 -90 0 -90 0
-5 230 c-3 127 -9 238 -13 247 -12 23 -70 41 -107 33 -16 -3 -41 -15 -55 -26
l-25 -20 0 -235 0 -235 -87 3 -88 3 -3 323 -2 322 85 0 c77 0 85 -2 85 -19 0
-11 3 -27 6 -36 6 -14 10 -13 34 10 52 50 149 68 232 43z m653 -20 c59 -30 79
-50 100 -101 30 -73 26 -77 -73 -77 l-88 0 -15 33 c-20 45 -60 63 -110 48 -43
-13 -64 -41 -55 -74 7 -31 29 -41 142 -71 111 -30 170 -64 196 -116 24 -47 23
-112 -2 -161 -59 -115 -288 -155 -426 -74 -52 30 -104 104 -104 147 l0 28 85
0 c77 0 85 -2 85 -19 0 -11 14 -31 31 -45 59 -50 169 -28 169 33 0 41 -24 56
-130 86 -166 46 -220 94 -220 194 0 85 45 145 136 182 72 28 209 22 279 -13z
m-9415 -207 c0 -216 1 -230 21 -255 17 -21 29 -26 65 -26 50 0 98 20 108 45 3
9 6 118 6 241 l0 224 90 0 90 0 0 -325 0 -326 -82 3 c-82 3 -83 3 -86 31 -2
15 -5 27 -7 27 -2 0 -21 -11 -41 -25 -93 -63 -224 -55 -291 17 -49 52 -53 80
-53 348 l0 250 90 0 90 0 0 -229z m3478 -93 l-3 -323 -90 0 -90 0 -3 323 -2
322 95 0 95 0 -2 -322z m652 272 c0 -49 -3 -55 -150 -250 l-150 -199 153 -3
152 -3 0 -70 0 -70 -267 -3 -268 -2 0 57 0 58 145 191 c79 106 141 194 138
198 -4 3 -66 6 -140 6 l-133 0 0 70 0 70 260 0 260 0 0 -50z m3350 -275 l0
-326 -87 3 -88 3 -3 323 -2 322 90 0 90 0 0 -325z"/>
<path d="M9362 3269 l3 -284 47 -3 c102 -7 182 40 215 126 14 36 18 75 18 167
0 106 -3 126 -24 168 -12 26 -39 60 -59 75 -31 23 -46 27 -119 31 l-83 3 2
-283z"/>
<path d="M5731 3337 c-50 -25 -66 -62 -70 -159 -5 -146 29 -208 117 -208 86 0
122 56 122 188 -1 100 -24 156 -74 177 -43 18 -64 19 -95 2z"/>
<path d="M8431 3337 c-30 -15 -58 -53 -67 -89 l-6 -28 116 0 116 0 -7 33 c-9
50 -22 67 -58 83 -42 17 -63 17 -94 1z"/>
<path d="M10191 3337 c-25 -12 -53 -53 -66 -94 -6 -23 -6 -23 109 -23 128 0
129 0 102 65 -23 55 -91 80 -145 52z"/>
<path d="M11825 3341 c-96 -42 -118 -260 -35 -343 24 -23 37 -28 78 -28 35 0
57 6 76 21 26 20 26 21 26 163 0 135 -1 144 -23 164 -25 24 -92 36 -122 23z"/>
</g>
</svg>
