<?xml version="1.0" standalone="no"?>
<!DOCTYPE svg PUBLIC "-//W3C//DTD SVG 20010904//EN"
 "http://www.w3.org/TR/2001/REC-SVG-20010904/DTD/svg10.dtd">
<svg version="1.0" xmlns="http://www.w3.org/2000/svg"
 width="860.000000pt" height="412.000000pt" viewBox="0 0 860.000000 412.000000"
 preserveAspectRatio="xMidYMid meet">

<g transform="translate(0.000000,412.000000) scale(0.100000,-0.100000)"
fill="#000000" stroke="none">
<path d="M7220 3695 c7 -9 15 -13 17 -11 7 7 -7 26 -19 26 -6 0 -6 -6 2 -15z"/>
<path d="M7344 3695 c26 -19 16 -28 -18 -16 -35 14 -33 5 4 -14 20 -10 30 -12
30 -4 0 6 7 9 15 5 8 -3 15 0 15 6 0 14 -31 37 -50 37 -11 0 -10 -3 4 -14z"/>
<path d="M7410 3661 c0 -11 39 -51 49 -51 3 0 13 5 21 10 13 8 13 10 -1 10 -9
0 -28 9 -43 21 -14 11 -26 16 -26 10z"/>
<path d="M7305 3619 c2 -27 -1 -30 -21 -25 -13 3 -26 1 -29 -5 -4 -6 -12 -8
-19 -6 -6 3 -20 -1 -31 -9 -10 -8 -27 -14 -37 -14 -33 0 -11 -30 25 -34 4 -1
13 -13 21 -27 12 -24 12 -27 -3 -24 -9 1 -15 10 -13 19 4 21 -14 21 -28 -1
-11 -17 -11 -17 -6 0 3 9 2 17 -2 17 -4 0 -21 14 -39 30 -21 20 -34 26 -39 19
-4 -7 1 -16 10 -21 9 -5 16 -14 16 -19 0 -6 -4 -8 -9 -5 -5 4 -11 0 -14 -6 -2
-7 -7 2 -11 20 -10 41 -27 32 -19 -11 5 -28 4 -30 -8 -15 -18 21 -62 7 -53
-17 3 -8 10 -15 15 -15 5 0 0 -9 -11 -20 -16 -16 -18 -25 -10 -39 7 -14 6 -21
-3 -25 -6 -3 -3 -4 8 -3 11 2 19 9 18 17 -4 20 100 21 119 1 11 -11 9 -12 -10
-6 -22 6 -22 6 3 -19 14 -14 25 -32 25 -41 0 -17 -25 -20 -36 -4 -3 6 -16 8
-27 5 -12 -3 -28 0 -36 7 -11 9 -15 9 -19 -1 -3 -10 -8 -9 -23 4 -11 10 -19
12 -19 6 0 -7 -9 -12 -19 -12 -11 0 -21 -5 -23 -11 -4 -12 -58 -1 -58 12 0 5
-9 9 -20 9 -22 0 -27 -16 -7 -23 6 -2 -35 -7 -93 -11 -58 -4 -130 -10 -160
-13 -30 -3 -52 -2 -48 2 4 4 1 13 -6 21 -20 20 -104 6 -91 -16 5 -9 -30 -20
-60 -19 -16 1 -16 2 5 9 24 8 24 8 3 9 -32 1 -28 23 7 44 22 14 30 15 30 5 0
-9 3 -9 10 2 7 12 12 12 22 2 14 -14 48 -16 48 -2 0 6 7 10 16 10 8 0 12 5 9
10 -8 13 8 13 21 0 11 -11 44 -3 44 10 0 5 19 6 42 3 29 -4 39 -3 34 5 -12 20
10 13 29 -8 10 -11 22 -20 27 -20 14 0 3 50 -13 61 -23 14 -5 10 29 -7 18 -8
32 -22 32 -30 0 -8 5 -12 10 -9 6 4 9 14 8 23 -2 9 5 18 16 20 14 3 17 0 13
-12 -7 -19 -6 -19 27 -7 17 7 26 7 29 -2 7 -18 25 3 31 36 3 17 0 27 -7 28 -7
0 -1 5 13 11 18 7 21 12 11 16 -8 3 -27 -9 -43 -27 -15 -17 -28 -26 -28 -20 0
8 -14 10 -43 6 -34 -5 -44 -3 -44 8 0 17 30 30 35 16 6 -17 29 -13 36 5 9 22
8 24 -10 24 -8 0 -12 -4 -9 -10 3 -5 2 -10 -4 -10 -5 0 -13 5 -16 10 -9 15
-45 12 -51 -5 -4 -8 -12 -15 -20 -15 -8 0 -14 -6 -15 -12 0 -7 -4 -3 -9 8 -11
28 -77 29 -72 1 2 -11 -8 -22 -25 -29 -15 -7 -31 -17 -35 -23 -5 -6 -8 -6 -8
2 0 6 -9 15 -21 18 -19 6 -19 8 -3 19 11 9 13 15 6 20 -6 3 -13 2 -17 -4 -3
-5 -31 -10 -61 -10 -31 0 -54 -4 -54 -11 0 -5 5 -7 10 -4 6 3 10 1 10 -4 0 -6
-12 -11 -26 -11 -14 0 -23 4 -19 10 3 6 -2 10 -12 10 -36 0 -61 -12 -66 -31
-4 -13 -10 -17 -22 -13 -13 6 -14 9 -3 16 9 7 6 8 -10 5 -15 -4 -25 0 -29 9
-8 20 -25 6 -18 -16 5 -14 2 -17 -14 -13 -11 3 -17 11 -15 18 3 7 -4 15 -15
18 -12 3 -21 2 -21 -2 0 -4 -16 -12 -35 -18 -26 -8 -33 -8 -28 0 3 7 -3 4 -15
-7 -16 -14 -31 -17 -56 -13 -25 4 -36 1 -40 -9 -4 -11 -15 -13 -42 -8 -27 5
-35 4 -30 -5 4 -6 1 -11 -9 -11 -9 0 -13 5 -10 10 3 6 1 10 -4 10 -6 0 -16 -9
-23 -20 -7 -11 -21 -20 -31 -20 -10 0 -15 5 -12 11 5 7 -13 9 -57 5 -34 -3
-69 -5 -75 -5 -7 -1 -13 -5 -13 -10 0 -5 6 -11 13 -14 6 -2 1 -2 -11 0 -15 2
-21 0 -17 -7 3 -5 0 -10 -9 -10 -8 0 -16 5 -18 11 -3 8 -18 9 -46 4 -23 -4
-39 -11 -36 -16 3 -6 -4 -7 -18 -4 -16 4 -29 1 -37 -9 -19 -23 -33 -19 -26 7
5 18 0 16 -25 -13 -27 -30 -31 -32 -27 -12 4 15 0 22 -10 22 -9 0 -12 -6 -8
-19 8 -26 -21 -48 -44 -34 -11 7 -23 8 -34 1 -13 -7 -17 -5 -17 6 0 8 6 17 13
19 9 4 9 6 -1 6 -7 1 -10 6 -6 12 7 11 2 11 -84 -6 -13 -2 -20 0 -16 6 3 5
-15 -5 -40 -23 -25 -17 -46 -35 -46 -38 0 -4 -13 -5 -30 -2 -21 3 -30 0 -30
-10 0 -9 -14 -15 -42 -17 -22 -1 -49 -6 -59 -11 -42 -23 -90 7 -75 47 4 9 1
13 -6 10 -7 -2 -12 -12 -10 -21 2 -10 -5 -24 -15 -32 -17 -12 -16 -13 7 -14
23 -1 23 -2 5 -10 -11 -5 -33 -9 -50 -9 -23 -1 -26 2 -15 9 12 8 11 10 -7 10
-14 0 -23 -6 -23 -15 0 -10 -10 -15 -27 -15 -27 1 -27 1 -9 15 11 8 17 17 15
20 -9 8 -63 -11 -67 -24 -3 -9 0 -11 9 -7 8 4 5 0 -6 -8 -11 -9 -25 -14 -32
-12 -7 3 -15 1 -18 -4 -4 -6 -29 -10 -58 -10 -28 0 -69 -6 -92 -14 -38 -14
-91 -29 -260 -76 -38 -11 -88 -22 -110 -25 -22 -3 -47 -7 -55 -9 -8 -2 -20 1
-26 6 -8 5 -14 3 -18 -7 -7 -19 -45 -20 -52 0 -4 8 -11 15 -16 15 -7 0 -6 -5
1 -14 9 -11 5 -15 -20 -20 -53 -10 -63 -8 -49 9 11 13 10 14 -4 9 -9 -3 -16
-10 -16 -14 0 -10 -56 -30 -83 -30 -11 0 -28 10 -39 22 -18 21 -19 21 -36 4
-16 -16 -16 -17 3 -11 17 5 16 4 -2 -6 -17 -9 -25 -9 -37 4 -8 8 -12 17 -9 21
4 3 -2 6 -13 6 -14 0 -16 2 -5 9 9 6 10 11 2 15 -6 4 -12 2 -12 -3 -1 -6 -3
-15 -4 -21 -1 -5 -3 -15 -4 -21 0 -5 -5 -7 -11 -4 -5 3 -10 -3 -10 -14 0 -12
7 -21 15 -21 8 0 15 -4 15 -10 0 -5 -22 -10 -50 -10 -38 0 -50 4 -50 15 0 8 5
15 10 15 6 0 10 5 10 11 0 6 -7 8 -16 5 -9 -4 -13 -2 -8 5 4 7 1 10 -6 7 -7
-2 -23 -23 -35 -46 -12 -23 -25 -39 -29 -35 -3 3 -14 -2 -25 -11 -13 -12 -21
-14 -26 -6 -4 7 2 14 14 17 11 3 18 9 15 14 -3 5 0 9 7 9 7 0 9 8 6 21 -5 17
-2 20 14 16 10 -3 19 -1 19 5 0 6 -16 7 -40 3 -22 -4 -40 -3 -39 2 5 29 -3 43
-25 43 -13 0 -26 -6 -29 -13 -3 -9 3 -13 16 -13 16 1 22 -5 23 -21 1 -17 -2
-21 -14 -14 -10 6 -21 4 -30 -5 -7 -8 -25 -17 -40 -20 -38 -9 -53 -24 -50 -48
2 -16 -3 -22 -23 -24 -24 -3 -26 0 -22 23 4 20 2 24 -11 19 -12 -5 -16 0 -17
20 -2 45 -4 49 -21 60 -13 8 -21 7 -30 -2 -11 -11 -9 -17 8 -30 30 -25 38 -75
14 -90 -16 -9 -18 -9 -14 2 3 8 1 16 -3 19 -14 9 -34 -8 -37 -29 -2 -10 -11
-21 -21 -22 -9 -2 -15 0 -11 6 6 10 -22 27 -39 23 -5 -2 -8 0 -5 2 3 3 8 5 11
4 4 -1 16 7 28 17 15 14 21 15 21 6 0 -11 2 -12 13 -1 16 16 16 79 0 86 -7 2
-25 0 -39 -5 -14 -6 -36 -8 -50 -6 -13 3 -30 -1 -38 -9 -10 -10 -16 -11 -25
-2 -9 9 -16 9 -31 -1 -26 -16 -67 -15 -74 1 -3 8 -8 7 -16 -5 -6 -10 -18 -18
-26 -18 -8 0 -12 5 -9 10 3 6 -1 10 -10 10 -9 0 -13 -5 -10 -10 9 -15 -25 -25
-43 -13 -11 6 -29 5 -56 -5 -23 -7 -66 -15 -96 -16 -30 -1 -64 -7 -75 -13 -11
-7 -33 -14 -48 -18 -24 -5 -28 -10 -26 -33 2 -15 0 -32 -4 -38 -4 -7 0 -15 9
-18 8 -3 12 -10 9 -16 -3 -5 3 -10 14 -10 12 0 21 -4 21 -10 0 -15 -70 -44
-106 -44 -18 0 -31 -3 -28 -7 2 -4 -13 -13 -33 -19 -50 -15 -209 -96 -250
-126 -31 -24 -78 -47 -98 -49 -5 0 -19 -6 -30 -12 -11 -6 -23 -13 -27 -15 -4
-1 -14 6 -22 17 -9 12 -15 15 -16 7 0 -7 -4 -11 -9 -7 -5 3 -16 -1 -24 -9 -8
-8 -17 -12 -21 -9 -3 3 -12 1 -19 -5 -10 -9 -14 -8 -14 2 0 7 15 19 34 25 18
7 34 15 34 19 4 18 6 52 4 52 -18 0 -131 -44 -139 -54 -7 -9 -22 -12 -43 -9
-42 7 -43 20 -2 20 17 0 34 5 38 12 5 7 11 12 15 12 23 -3 36 0 32 8 -4 5 0
12 6 15 7 2 -14 2 -47 -1 -33 -3 -64 -9 -70 -14 -13 -13 -28 -11 -20 2 4 5 18
14 31 19 34 13 31 34 -3 25 -15 -3 -30 -10 -33 -13 -7 -10 -43 -15 -37 -5 3 4
-1 14 -9 21 -20 18 -19 -11 1 -32 13 -13 13 -15 -6 -21 -17 -6 -19 -9 -8 -16
11 -7 10 -9 -5 -9 -14 0 -17 5 -13 21 4 16 3 18 -8 9 -8 -7 -18 -9 -24 -6 -11
7 -63 -19 -54 -27 3 -4 1 -7 -5 -7 -5 0 -12 6 -15 13 -3 9 -8 8 -22 -3 -14
-11 -19 -12 -22 -2 -6 17 -28 15 -44 -5 -13 -17 -13 -17 5 -3 18 14 19 13 14
-12 -4 -20 0 -29 19 -39 20 -11 28 -10 52 4 35 20 105 23 99 5 -5 -13 -51 -24
-136 -33 -35 -3 -42 -2 -33 9 9 10 0 11 -44 3 -46 -9 -53 -13 -43 -25 10 -12
8 -13 -14 -10 -30 3 -32 1 -22 -26 4 -11 2 -21 -7 -27 -25 -16 -33 -10 -14 11
17 19 17 20 1 20 -9 0 -14 5 -11 10 4 7 -2 9 -18 5 -14 -4 -28 -2 -31 4 -4 6
-20 11 -36 11 -16 0 -31 4 -35 10 -3 5 -12 7 -21 3 -8 -3 -14 -2 -13 3 6 35
-24 67 -75 80 -21 5 -25 3 -20 -10 3 -9 10 -13 15 -10 13 8 11 -10 -3 -24 -13
-13 -3 -19 41 -24 32 -4 40 -43 9 -45 -11 -1 -18 1 -14 4 7 7 -24 32 -41 33
-7 0 -15 -17 -19 -37 -4 -21 -13 -44 -21 -51 -12 -12 -17 -8 -14 11 1 5 -3 6
-8 3 -14 -9 -42 4 -35 16 7 11 -29 2 -56 -13 -13 -7 -12 -8 3 -9 24 0 21 -21
-4 -27 -12 -4 -18 -11 -15 -20 3 -8 6 -17 6 -19 0 -2 5 -4 11 -4 5 0 7 5 4 10
-4 6 8 10 29 10 31 0 36 -3 36 -22 0 -18 -6 -23 -27 -23 -16 1 -44 9 -63 19
-19 10 -30 13 -23 6 9 -10 8 -16 -3 -28 -8 -8 -13 -20 -10 -27 3 -8 -6 -15
-25 -17 -16 -3 -29 -1 -29 4 0 4 9 8 20 8 19 0 29 18 13 21 -40 8 -100 4 -108
-7 -13 -17 -75 0 -123 34 -24 18 -32 20 -32 9 0 -8 6 -19 12 -24 26 -20 104
-43 154 -46 49 -2 50 -3 51 -33 1 -28 -2 -30 -25 -26 -17 3 -23 1 -18 -7 4 -6
1 -11 -8 -11 -9 0 -16 -4 -16 -10 0 -15 106 -12 145 4 41 18 56 5 17 -15 l-27
-13 27 -4 c19 -2 25 -8 21 -18 -3 -9 -21 -14 -53 -14 -34 0 -52 -5 -65 -20
-10 -11 -14 -20 -10 -20 5 0 4 -5 -3 -12 -6 -6 -42 -11 -80 -12 -51 -1 -75 -6
-89 -18 -10 -10 -35 -24 -56 -33 -41 -17 -51 -30 -11 -15 14 6 42 10 62 10 20
0 55 7 77 15 76 27 130 14 94 -22 -13 -13 -5 -43 11 -43 5 0 10 9 10 19 0 11
15 32 33 47 27 22 33 24 35 10 2 -9 7 -16 12 -16 5 0 5 -13 0 -30 -8 -26 -6
-30 11 -30 18 0 16 -6 -17 -45 -39 -48 -38 -50 16 -35 30 8 33 7 18 -4 -23
-17 -23 -28 -2 -24 10 2 19 -3 21 -9 3 -7 -2 -13 -9 -13 -8 0 -19 -5 -26 -12
-9 -9 -8 -16 5 -30 9 -10 22 -18 30 -18 20 0 16 -21 -11 -49 -28 -31 -45 -91
-24 -91 7 1 31 7 53 15 57 21 79 17 26 -4 -29 -12 -40 -20 -32 -26 11 -6 10
-9 0 -16 -9 -5 -16 -3 -19 6 -8 22 -27 4 -35 -33 -6 -31 -5 -33 14 -27 15 4
21 2 21 -9 0 -8 13 -24 30 -36 27 -19 31 -20 59 -5 39 20 44 19 31 -6 -7 -12
-18 -18 -26 -15 -8 3 -13 2 -9 -3 6 -11 -21 -41 -37 -41 -6 0 0 9 13 20 13 10
19 19 12 20 -6 0 -15 -5 -18 -10 -3 -5 -15 -10 -26 -10 -13 0 -19 -7 -19 -21
0 -18 4 -20 25 -15 20 5 25 3 25 -11 0 -14 2 -15 9 -5 6 10 14 11 27 4 11 -5
31 -15 46 -22 38 -18 40 -42 4 -60 -16 -8 -32 -21 -34 -28 -3 -11 0 -12 18 -2
12 6 28 9 36 6 16 -6 19 -46 4 -46 -5 0 -9 -5 -7 -12 1 -6 -14 -13 -35 -15
-37 -4 -38 -3 -39 29 l-1 33 -7 -30 c-8 -35 2 -44 52 -47 23 -2 33 -7 30 -16
-3 -6 -11 -12 -19 -12 -8 0 -14 -4 -14 -9 0 -5 -20 -14 -45 -20 -25 -6 -45
-13 -45 -16 0 -7 73 -3 98 6 12 5 22 5 22 -1 0 -5 9 -12 21 -15 11 -4 24 -18
30 -31 5 -14 13 -22 19 -19 22 14 8 -15 -17 -35 -15 -12 -32 -36 -38 -53 -6
-19 -18 -33 -30 -36 -11 -2 -31 -12 -45 -24 l-25 -20 27 5 c15 3 25 1 22 -3
-3 -5 -12 -9 -20 -9 -9 0 -14 -7 -12 -18 5 -27 62 -24 66 4 2 12 14 26 28 33
35 15 41 14 18 -5 -18 -14 -18 -15 4 -4 12 6 22 15 22 20 0 6 5 10 11 10 5 0
7 -4 4 -10 -10 -16 11 -12 25 5 16 19 30 19 30 1 0 -18 26 -27 56 -20 14 4 31
1 40 -7 13 -11 9 -14 -28 -27 -24 -8 -53 -22 -65 -32 -21 -16 -21 -19 -6 -24
11 -5 23 0 33 12 20 26 66 37 74 17 3 -8 12 -15 21 -15 11 0 15 -12 16 -42 2
-33 3 -36 6 -13 7 60 14 80 22 66 7 -10 13 -10 29 -2 26 14 32 14 32 0 0 -6
-11 -20 -25 -30 -20 -17 -23 -24 -14 -46 6 -18 6 -30 -2 -39 -9 -11 -8 -14 4
-14 28 0 29 -19 3 -32 -14 -6 -26 -15 -26 -19 0 -13 30 -18 55 -9 13 5 27 5
30 1 8 -13 -41 -41 -64 -36 -25 5 -37 -11 -21 -30 8 -10 8 -15 -1 -20 -6 -4
-14 -3 -18 3 -4 7 -12 8 -21 2 -8 -6 -10 -10 -4 -10 22 0 57 -41 58 -67 1 -25
5 -28 34 -29 18 0 28 2 23 6 -6 3 -6 11 -2 19 7 11 10 9 16 -8 3 -11 3 -26 -1
-33 -5 -10 -3 -10 7 0 8 7 14 18 14 25 0 12 25 12 55 0 24 -9 63 -12 95 -6 30
6 30 6 6 15 -29 10 -22 19 20 24 28 4 30 2 18 -13 -11 -13 -11 -15 -1 -9 15 9
55 -22 46 -36 -3 -5 6 -7 20 -4 15 3 24 1 21 -5 -4 -5 17 -10 47 -10 42 -1 47
-3 23 -8 -43 -9 -14 -24 31 -15 20 4 32 9 27 13 -12 9 -16 61 -4 61 6 0 8 7 5
15 -4 8 -1 15 5 15 6 0 11 7 11 15 0 8 5 15 10 15 6 0 15 11 20 24 7 18 14 23
30 19 12 -3 28 1 39 11 19 17 31 11 44 -24 4 -10 6 -8 6 7 1 12 7 24 14 27 6
3 2 3 -10 0 -18 -4 -22 -2 -17 11 4 10 14 15 26 12 13 -4 22 2 30 18 12 26 41
42 46 26 6 -17 29 -13 37 7 7 15 9 14 15 -8 5 -16 8 -19 9 -7 1 20 21 24 21 3
0 -20 -24 -36 -39 -27 -18 11 -69 -9 -74 -29 -4 -14 14 -40 28 -40 4 0 13 7
22 15 11 11 19 13 28 5 16 -13 75 -1 82 16 3 8 9 12 14 9 4 -3 18 0 30 7 17
10 23 10 26 1 6 -17 20 -16 26 1 4 11 -3 14 -26 14 -51 0 -59 1 -52 12 4 6 11
8 16 4 5 -3 8 0 7 8 -2 10 17 13 82 14 47 1 120 9 162 18 43 9 81 15 85 14 5
-1 40 4 78 11 39 8 84 14 100 15 17 1 40 6 53 10 23 8 32 -8 10 -17 -7 -3 -3
-6 10 -6 12 -1 22 5 22 13 0 7 9 16 20 19 11 3 20 1 20 -3 0 -5 -8 -10 -17
-12 -10 -3 3 -6 29 -9 25 -2 44 -1 41 4 -2 4 -1 7 4 7 4 1 49 8 98 16 50 8
101 16 115 18 14 2 31 4 38 4 8 1 11 9 8 20 -4 13 -1 19 9 19 10 0 13 -6 9
-19 -5 -17 6 -25 19 -12 4 4 23 8 44 10 42 3 114 11 153 18 14 2 28 5 33 5 4
1 7 6 7 12 0 5 -4 7 -10 4 -6 -3 -10 -1 -10 4 0 6 13 11 30 11 19 0 28 -4 25
-12 -4 -9 5 -13 25 -14 16 -1 30 2 30 6 0 5 10 8 23 7 12 0 34 3 50 7 22 7 26
5 21 -7 -3 -9 -11 -14 -18 -11 -7 3 -25 -2 -40 -9 -27 -14 -27 -15 -4 -20 22
-6 23 -7 3 -23 -19 -15 -18 -15 7 0 30 18 42 20 34 8 -3 -5 4 -8 16 -7 21 2
53 35 68 73 11 25 53 32 44 7 -8 -20 5 -19 44 5 36 22 46 25 37 11 -3 -5 8 -3
23 5 16 7 44 17 62 20 30 7 33 5 28 -14 -5 -17 -2 -22 12 -22 11 0 22 5 25 10
3 6 18 10 33 10 34 0 79 29 62 40 -7 5 -2 9 14 12 22 4 26 2 21 -13 -5 -15 -2
-17 21 -13 15 3 31 7 35 9 4 3 9 -4 12 -14 4 -15 10 -18 28 -14 20 6 21 7 5
13 -10 3 -17 9 -17 13 3 25 -1 29 -24 23 -31 -8 -33 2 -2 13 17 7 26 4 39 -12
l18 -22 0 23 c0 12 6 22 14 22 8 0 13 -8 12 -17 -3 -17 15 -43 29 -43 4 0 5 7
2 15 -4 8 -2 17 4 20 5 4 8 14 7 23 -2 11 5 18 21 20 20 3 23 0 18 -17 -3 -12
2 -26 12 -34 14 -12 20 -12 41 0 25 15 25 15 -7 9 -19 -3 -33 -1 -33 4 0 6 11
10 24 10 14 0 32 7 41 16 12 13 19 14 28 5 9 -9 8 -14 -3 -21 -12 -8 -11 -10
5 -10 11 0 27 4 35 10 12 8 12 10 -3 16 -17 6 -17 7 0 20 10 7 26 14 37 14 11
0 16 5 13 14 -3 8 1 17 9 20 22 8 26 7 19 -3 -3 -5 -1 -12 4 -15 5 -3 11 4 14
15 5 17 11 20 31 17 14 -3 26 -1 26 3 0 5 5 9 11 9 8 0 7 -5 -2 -16 -10 -13
-10 -17 2 -25 10 -6 11 -9 1 -9 -7 0 -10 -4 -7 -10 3 -5 -1 -10 -9 -10 -21 0
-30 18 -16 35 14 16 3 20 -18 6 -17 -11 -17 -22 0 -32 10 -6 9 -11 -6 -22 -14
-10 5 -8 67 7 77 19 87 24 87 44 0 12 4 22 10 22 5 0 7 7 4 15 -4 9 0 15 10
15 9 0 15 -3 15 -7 -1 -5 -1 -17 0 -28 2 -19 2 -19 15 -2 7 9 18 17 25 17 6 0
16 11 21 25 10 27 25 33 33 13 3 -7 6 -4 6 7 1 17 3 17 11 5 14 -22 12 -30 -7
-30 -15 0 -16 -2 -3 -10 8 -5 11 -10 6 -10 -6 0 -5 -5 1 -11 17 -17 37 -1 22
17 -8 10 -8 14 0 14 6 0 10 3 10 8 -5 27 10 38 80 57 19 6 23 4 18 -8 -3 -9 1
-18 9 -21 8 -3 17 1 21 9 4 12 9 13 18 5 10 -8 20 -7 40 6 14 9 39 17 56 16
16 0 29 3 29 7 0 5 18 11 39 15 22 3 43 10 46 16 4 6 -1 7 -12 3 -10 -3 -15
-3 -12 1 3 3 26 13 50 21 l44 15 -44 -6 c-39 -4 -42 -3 -31 11 7 8 17 12 22 9
11 -7 39 27 32 38 -8 13 -58 8 -78 -7 -12 -9 -15 -15 -7 -15 11 0 11 -3 1 -15
-6 -8 -9 -18 -6 -23 3 -5 -1 -17 -8 -27 -16 -22 -40 -10 -33 16 4 15 0 19 -23
19 -16 0 -32 -5 -35 -10 -3 -6 -1 -10 6 -10 34 0 -58 -30 -135 -44 -14 -3 -30
-7 -36 -11 -5 -3 -10 -1 -10 4 0 16 -19 13 -36 -4 -17 -17 -49 -21 -39 -5 11
17 -24 11 -43 -8 -9 -9 -26 -17 -37 -16 -11 0 -28 -5 -39 -12 -10 -7 -33 -10
-53 -7 -23 4 -38 2 -43 -7 -10 -16 -82 -23 -115 -10 -14 5 -24 7 -22 2 7 -10
-15 -28 -33 -27 -8 1 -23 -3 -34 -8 -10 -5 -38 -11 -63 -12 -24 -2 -50 -9 -57
-15 -10 -7 -17 -6 -25 4 -12 14 -46 8 -93 -15 -23 -11 -28 -11 -28 1 0 5 15
14 33 19 25 7 27 9 10 10 -13 1 -23 6 -23 12 0 5 5 7 10 4 6 -3 10 -2 10 4 0
8 25 17 70 26 3 0 22 7 42 14 21 7 43 9 49 5 6 -3 15 -1 19 6 5 7 25 15 46 17
46 5 50 8 34 28 -7 8 -10 21 -7 28 3 9 -4 12 -29 9 -26 -3 -34 0 -34 12 0 9 5
16 11 16 5 0 8 3 6 7 -3 5 6 9 19 9 15 1 24 -4 24 -13 0 -13 3 -13 16 -2 9 7
12 15 6 17 -5 1 -7 12 -4 24 4 16 2 19 -8 13 -7 -4 -20 -9 -29 -10 -31 -3 -96
-18 -106 -24 -10 -6 -55 -10 -55 -4 0 7 73 34 125 45 47 11 60 18 60 32 0 10
10 22 23 27 16 6 22 5 22 -6 0 -8 -5 -15 -11 -15 -5 0 -8 -4 -4 -10 4 -6 15
-6 33 1 14 6 48 13 75 15 27 3 85 16 128 29 43 13 98 27 124 30 25 4 49 14 54
23 8 14 13 14 36 4 31 -14 48 -16 41 -3 -11 17 19 19 37 3 14 -13 20 -13 30
-2 9 10 9 11 -1 6 -10 -6 -11 -1 -6 21 4 15 8 29 9 31 5 6 35 -11 31 -17 -3
-4 0 -13 6 -21 8 -12 9 -11 4 4 -5 15 -2 17 14 13 11 -3 18 -2 15 2 -6 10 34
29 62 29 16 1 20 -4 16 -16 -5 -15 -4 -15 8 1 8 9 26 20 41 22 15 3 39 10 53
15 13 5 31 7 38 4 7 -2 22 5 32 16 14 15 20 17 26 8 6 -10 11 -9 21 3 15 19
94 37 83 20 -3 -6 -13 -11 -21 -11 -8 0 -12 -4 -9 -10 3 -5 1 -10 -5 -10 -6 0
-8 -5 -5 -11 5 -6 12 -4 21 8 12 16 15 16 24 3 7 -12 10 -8 10 18 0 26 4 32
21 32 16 0 19 -4 14 -20 -5 -14 -2 -20 9 -20 9 0 16 8 16 19 0 11 13 25 34 35
42 20 46 20 46 1 0 -8 -7 -15 -15 -15 -9 0 -12 -6 -9 -15 9 -22 44 -19 44 4 0
25 20 38 21 14 0 -10 3 -13 6 -5 7 18 31 15 36 -5 4 -17 5 -17 6 0 0 10 -9 21
-21 26 -21 8 -21 8 3 14 23 6 23 7 5 20 -17 13 -15 14 25 20 24 4 54 9 66 13
15 4 22 1 26 -13 4 -15 5 -15 6 4 1 22 15 28 95 38 22 2 43 9 46 15 5 7 22 9
46 5 29 -5 35 -4 24 4 -13 9 -13 11 2 11 9 0 24 3 34 7 11 4 15 3 11 -5 -4 -6
1 -12 10 -15 15 -3 14 -6 -6 -14 -16 -6 -20 -12 -13 -17 7 -4 11 -17 11 -29
-1 -17 -2 -18 -6 -4 -6 23 -23 22 -23 -3 0 -11 -6 -20 -14 -20 -20 0 -29 17
-14 23 9 4 10 6 1 6 -17 1 -23 -13 -13 -28 12 -20 77 -5 85 19 3 11 3 24 0 30
-3 5 1 10 10 10 11 0 15 -5 11 -15 -3 -8 -1 -15 4 -15 6 0 10 9 10 21 0 12 5
19 13 16 6 -2 11 -11 9 -18 -3 -11 0 -11 10 1 7 8 20 21 28 29 13 12 12 13 -7
8 -31 -7 -29 5 2 20 14 6 25 7 25 2 0 -14 26 -10 40 6 19 22 30 18 30 -11 0
-23 3 -26 28 -20 24 5 24 4 -8 -14 -22 -12 -28 -19 -18 -20 12 0 15 -5 11 -17
-5 -15 -4 -16 8 -7 8 6 26 14 41 18 15 3 33 12 40 19 21 21 75 29 82 12 3 -10
-5 -18 -27 -24 -32 -9 -32 -9 -4 -10 15 -1 35 3 45 8 9 5 25 12 34 15 11 3 15
11 12 20 -4 10 0 13 13 10 11 -3 26 3 37 15 11 12 25 21 31 21 15 0 28 -28 19
-41 -3 -5 5 -9 18 -8 13 0 17 3 11 6 -7 2 -13 18 -13 34 0 32 -26 51 -40 29
-4 -7 -24 -14 -43 -15 -19 -1 -39 -5 -44 -8 -18 -11 -124 -20 -122 -11 3 20
-2 28 -10 15 -7 -11 -13 -10 -35 4 -14 10 -26 20 -26 24 0 9 61 31 88 31 11 0
24 5 27 10 3 6 -5 10 -19 10 -30 0 -43 17 -19 24 10 2 52 10 93 16 41 7 81 17
87 22 7 6 22 8 33 5 11 -3 20 -2 20 3 0 4 11 10 25 12 14 3 25 2 25 -2 0 -4
17 -2 38 6 50 17 132 28 205 29 31 0 57 3 57 6 0 8 63 20 101 20 22 0 26 4 22
19 -4 14 0 20 10 20 10 0 13 -6 10 -19 -6 -23 10 -28 62 -21 l40 6 -33 8 c-27
6 -31 10 -21 22 15 18 39 17 64 -2 14 -11 16 -18 8 -21 -24 -9 -13 -23 18 -23
22 0 32 5 36 20 3 12 14 20 26 20 21 0 21 0 1 -16 -19 -15 -18 -15 4 -11 16 4
22 1 22 -13 0 -11 -4 -22 -10 -25 -5 -3 2 -17 18 -31 15 -13 21 -23 13 -22
-20 4 -26 -28 -6 -35 9 -4 15 -1 15 8 0 8 5 15 10 15 16 0 12 18 -8 38 -22 22
-35 99 -19 109 6 4 8 1 5 -8 -3 -8 1 -20 8 -27 10 -9 14 -9 14 -1 0 8 7 7 23
-3 30 -20 48 -12 41 18 -4 14 -2 24 5 24 6 0 8 -7 5 -15 -4 -8 -2 -15 4 -15 5
0 7 -11 4 -25 -3 -17 1 -27 12 -31 13 -5 14 -10 5 -20 -6 -7 -8 -18 -4 -24 3
-5 0 -10 -7 -10 -31 0 48 -38 92 -44 26 -4 62 -13 79 -22 17 -9 37 -13 44 -11
7 3 5 6 -6 6 -15 1 -39 38 -41 66 -2 16 -59 40 -64 27 -6 -19 -17 -14 -41 19
l-23 31 22 -12 c21 -11 22 -10 15 19 -6 27 -4 30 12 25 10 -4 30 -18 45 -31
21 -21 32 -24 59 -18 l32 7 -24 19 c-13 10 -19 19 -12 19 6 0 15 -4 18 -10 9
-15 45 -12 45 3 0 17 -32 47 -49 47 -21 0 -71 33 -71 47 0 11 6 10 30 -2 26
-13 30 -13 30 -1 0 21 -60 68 -80 63 -10 -2 -17 2 -17 9 0 9 11 14 29 14 15 0
28 5 28 10 0 10 6 8 57 -18 21 -11 21 -10 16 25 l-6 37 28 -22 c37 -29 60 -29
50 1 -7 21 -19 94 -31 183 -6 40 -5 41 38 63 l43 22 42 -46 c23 -25 43 -45 46
-45 3 0 7 10 11 22 4 17 -3 31 -26 55 -18 18 -37 33 -44 33 -14 0 -94 78 -94
92 0 7 4 7 13 1 6 -6 20 -13 30 -16 15 -6 16 -4 7 13 -6 11 -15 20 -20 20 -6
0 -10 5 -10 10 0 6 16 10 35 10 40 0 40 1 19 41 l-16 31 31 -7 c25 -5 30 -4
25 9 -3 8 -16 21 -28 29 -19 13 -22 23 -20 68 0 29 -2 64 -6 78 -5 20 -1 31
17 48 12 12 23 32 23 44 0 21 1 21 26 4 47 -31 40 -4 -12 44 -38 35 -54 58
-64 94 -9 33 -23 56 -49 77 -20 16 -44 37 -54 46 -14 11 -29 14 -57 9 -25 -4
-40 -2 -46 6 -4 7 -3 10 2 6 6 -3 16 -2 23 2 8 6 3 12 -18 20 -18 8 -28 18
-24 26 3 10 10 11 21 5 55 -31 91 -38 124 -27 18 7 41 21 50 32 17 19 16 21
-30 65 -27 25 -57 58 -67 74 -18 27 -18 28 1 25 10 -2 21 1 23 6 6 16 -104 65
-171 76 -38 6 -68 17 -76 27 -8 11 -9 18 -2 20 5 2 10 11 9 20 0 11 -2 12 -6
4 -2 -6 -10 -9 -15 -6 -7 4 -8 2 -4 -4 4 -7 3 -12 -3 -12 -6 0 -8 -7 -5 -15 4
-10 0 -15 -15 -15 -12 0 -21 5 -21 11 0 6 -7 3 -16 -6 -10 -10 -25 -14 -38
-11 -12 3 -24 6 -28 6 -5 0 -8 5 -8 11 0 6 7 8 16 5 8 -3 13 -2 10 3 -3 4 -30
16 -60 25 -37 12 -56 23 -59 38 -5 17 -2 19 19 14 32 -8 30 0 -4 18 -29 15
-29 15 -27 -15z m-80 -77 c-2 -3 -12 -1 -22 2 -15 6 -15 9 -3 16 13 8 35 -8
25 -18z m113 -11 c14 -16 20 -19 16 -8 -4 12 -1 17 10 17 9 0 16 -5 16 -11 0
-5 4 -8 8 -5 5 3 24 -9 43 -26 22 -21 29 -33 21 -36 -7 -2 -20 4 -28 14 -14
17 -15 17 -10 1 5 -14 2 -16 -13 -7 -11 5 -21 15 -24 22 -2 8 -8 9 -13 4 -5
-5 -4 -11 4 -13 6 -3 10 -9 6 -14 -9 -15 -24 -10 -24 9 -1 16 -1 16 -14 0 -18
-24 -23 -23 -30 8 -5 20 -12 25 -27 21 -17 -5 -19 -1 -15 26 2 18 5 33 5 34 5
8 51 -16 69 -36z m142 -41 c0 -5 -5 -10 -11 -10 -5 0 -7 5 -4 10 3 6 8 10 11
10 2 0 4 -4 4 -10z m-366 -25 c3 -8 1 -15 -5 -15 -6 0 -8 -4 -5 -9 3 -4 -6 -6
-19 -3 -39 7 -30 38 11 41 7 1 14 -6 18 -14z m66 -15 c0 -5 -7 -10 -16 -10 -8
0 -12 5 -9 10 3 6 10 10 16 10 5 0 9 -4 9 -10z m-505 -30 c-3 -5 -14 -6 -26
-3 -15 4 -17 8 -8 13 15 10 41 1 34 -10z m732 14 c-3 -3 -12 -4 -19 -1 -8 3
-5 6 6 6 11 1 17 -2 13 -5z m-227 -15 c0 -5 10 -9 21 -7 16 2 23 -3 25 -19 2
-14 -1 -23 -9 -22 -15 0 -63 59 -48 59 6 0 11 -5 11 -11z m-743 -23 c0 -8 -8
-11 -19 -8 -10 2 -15 8 -12 13 8 14 31 11 31 -5z m858 4 c3 -5 -1 -10 -9 -10
-8 0 -18 5 -21 10 -3 6 1 10 9 10 8 0 18 -4 21 -10z m107 -8 c-13 -4 -17 -42
-4 -42 5 0 17 -7 28 -16 10 -8 14 -13 7 -10 -6 4 -22 2 -36 -3 -22 -8 -26 -5
-45 32 l-21 42 22 6 c24 6 70 -2 49 -9z m-207 -60 c-20 -4 -20 -4 -30 28 l-7
25 27 -25 c22 -21 24 -26 10 -28z m124 11 c2 -2 1 -6 -2 -10 -4 -3 -16 2 -27
12 -10 9 -26 15 -35 12 -15 -6 -21 4 -9 16 6 5 33 -6 73 -30z m191 33 c0 -11
-19 -15 -25 -6 -3 5 1 10 9 10 9 0 16 -2 16 -4z m-45 -34 c-8 -8 -25 10 -19
20 4 6 9 5 15 -3 4 -7 6 -15 4 -17z m91 3 c13 -14 32 -25 42 -25 11 0 25 -7
32 -15 11 -14 10 -14 -15 -5 -16 6 -34 8 -42 6 -12 -5 -93 30 -93 40 0 2 11 2
25 -2 20 -5 24 -3 19 10 -9 24 5 20 32 -9z m-1312 -5 c17 -6 26 -6 26 0 0 6
17 10 38 10 27 0 33 -3 22 -10 -12 -8 -9 -10 13 -10 27 0 36 -13 17 -25 -5 -3
-10 -2 -10 4 0 12 -24 9 -41 -6 -8 -6 -36 -13 -64 -16 -27 -2 -57 -7 -65 -9
-8 -3 -11 -3 -7 0 4 2 0 10 -9 16 -20 15 -12 33 20 46 28 12 31 12 60 0z
m-589 -10 c-3 -5 -11 -10 -16 -10 -6 0 -7 5 -4 10 3 6 11 10 16 10 6 0 7 -4 4
-10z m418 -28 c-2 -13 1 -21 6 -18 5 3 11 -1 14 -8 6 -15 -13 -22 -80 -30 -33
-5 -33 -4 -15 19 11 15 19 19 24 12 4 -6 10 -8 14 -4 4 3 2 13 -4 20 -9 10 -8
17 1 26 18 18 42 8 40 -17z m427 4 c0 -3 -4 -8 -10 -11 -5 -3 -10 -1 -10 4 0
6 5 11 10 11 6 0 10 -2 10 -4z m50 0 c0 -9 -30 -14 -35 -6 -4 6 3 10 14 10 12
0 21 -2 21 -4z m-575 -16 c-3 -5 -10 -10 -16 -10 -5 0 -9 5 -9 10 0 6 7 10 16
10 8 0 12 -4 9 -10z m1435 0 c12 -8 9 -10 -12 -10 -16 0 -28 5 -28 10 0 13 20
13 40 0z m-1510 -10 c0 -5 -4 -10 -10 -10 -5 0 -10 -4 -10 -10 0 -6 19 -7 45
-4 30 3 45 1 45 -7 0 -6 -6 -9 -14 -6 -8 3 -17 3 -20 0 -8 -8 -136 -15 -136
-7 0 13 22 44 28 40 5 -3 14 -1 22 5 20 12 50 11 50 -1z m227 4 c-3 -3 -12 -4
-19 -1 -8 3 -5 6 6 6 11 1 17 -2 13 -5z m849 -11 c5 3 15 -1 22 -9 10 -11 8
-13 -17 -10 -21 2 -28 0 -24 -10 3 -8 13 -14 23 -14 10 0 20 -7 24 -15 4 -10
-1 -15 -14 -15 -11 0 -20 5 -20 10 0 6 -4 10 -10 10 -5 0 -10 -7 -10 -15 0 -9
-9 -15 -21 -15 -15 0 -19 5 -15 15 3 8 1 15 -4 15 -6 0 -10 -7 -10 -15 0 -8
-9 -15 -20 -15 -11 0 -20 5 -20 10 0 6 -18 10 -39 10 -22 0 -43 -4 -46 -10 -3
-5 -11 -10 -16 -10 -6 0 -8 4 -5 9 8 12 -62 19 -103 10 -19 -4 -41 -4 -49 0
-9 5 7 12 45 20 59 12 82 15 212 27 40 4 78 13 85 19 7 8 13 9 17 3 4 -6 11
-8 15 -5z m231 11 c-3 -3 -12 -4 -19 -1 -8 3 -5 6 6 6 11 1 17 -2 13 -5z
m-127 -24 c0 -3 -5 -12 -10 -20 -6 -10 -10 -11 -10 -2 0 6 -6 12 -14 12 -8 0
-17 4 -20 9 -3 5 8 8 24 7 17 0 30 -3 30 -6z m202 1 c17 -1 48 -27 48 -39 0
-4 -33 -6 -72 -5 -95 4 -96 4 -103 20 -3 11 1 13 15 8 21 -7 28 10 8 18 -7 3
10 3 37 2 28 -2 58 -4 67 -4z m-1592 -11 c0 -5 -5 -10 -11 -10 -5 0 -7 5 -4
10 3 6 8 10 11 10 2 0 4 -4 4 -10z m806 -2 c4 -4 -220 -38 -248 -38 -5 0 -8 5
-8 11 0 5 8 9 18 8 9 -1 24 1 32 5 45 19 190 29 206 14z m154 2 c0 -5 -4 -10
-10 -10 -5 0 -10 5 -10 10 0 6 5 10 10 10 6 0 10 -4 10 -10z m-906 -25 c4 -10
-1 -15 -16 -15 -17 0 -18 2 -8 15 7 8 14 15 15 15 2 0 5 -7 9 -15z m-60 -10
c4 -10 -1 -15 -14 -15 -20 0 -26 11 -13 23 10 11 20 8 27 -8z m516 -11 c0 -2
-7 -4 -15 -4 -8 0 -15 4 -15 10 0 5 7 7 15 4 8 -4 15 -8 15 -10z m934 7 c8
-13 -23 -23 -48 -15 -21 7 -21 7 -1 15 28 11 43 11 49 0z m-1107 -17 c-3 -3
-12 -4 -19 -1 -8 3 -5 6 6 6 11 1 17 -2 13 -5z m816 -1 c-7 -2 -19 -2 -25 0
-7 3 -2 5 12 5 14 0 19 -2 13 -5z m-419 -15 c-7 -10 -35 -10 -51 0 -8 5 1 8
22 8 18 0 31 -4 29 -8z m-467 -4 c-3 -3 -12 -4 -19 -1 -8 3 -5 6 6 6 11 1 17
-2 13 -5z m1213 -8 c0 -2 -12 -16 -27 -32 -15 -17 -24 -22 -20 -11 3 9 3 17
-2 17 -4 0 -8 6 -8 14 0 8 12 13 29 14 15 0 28 -1 28 -2z m55 -6 c3 -5 2 -10
-4 -10 -5 0 -13 5 -16 10 -3 6 -2 10 4 10 5 0 13 -4 16 -10z m70 -11 c-10 -15
-25 -10 -19 6 4 8 10 12 15 9 5 -3 7 -10 4 -15z m-331 -41 c-6 -22 -6 -22 14
2 21 24 28 18 16 -14 -10 -27 -44 -20 -44 9 0 14 5 25 11 25 6 0 8 -9 3 -22z
m351 -16 c-6 -7 -45 19 -45 29 0 5 11 2 24 -8 13 -10 23 -19 21 -21z m125 34
c0 -11 -19 -15 -25 -6 -3 5 1 10 9 10 9 0 16 -2 16 -4z m-210 -15 c0 -13 -25
-20 -40 -11 -10 6 -8 9 6 13 31 8 34 7 34 -2z m-130 -5 c0 -2 -7 -6 -15 -10
-8 -3 -15 -1 -15 4 0 6 7 10 15 10 8 0 15 -2 15 -4z m385 -6 c3 -5 15 -10 26
-10 10 0 19 -7 19 -15 0 -9 -9 -15 -25 -15 -14 0 -25 5 -25 11 0 7 -8 18 -17
25 -17 12 -17 13 -1 14 9 0 20 -4 23 -10z m-580 -10 c-3 -5 -11 -10 -16 -10
-6 0 -7 5 -4 10 3 6 11 10 16 10 6 0 7 -4 4 -10z m546 -13 c-1 -12 -15 -9 -19
4 -3 6 1 10 8 8 6 -3 11 -8 11 -12z m-371 -33 c0 -12 -4 -12 -20 -4 -11 6 -18
15 -15 20 8 13 35 0 35 -16z m105 8 c-11 -2 -24 -8 -29 -13 -6 -5 -19 -9 -30
-8 -15 0 -9 6 19 18 22 10 45 16 50 12 6 -3 1 -7 -10 -9z m150 -21 c-4 -15 0
-21 17 -24 23 -4 23 -4 1 -6 -22 -1 -48 30 -36 43 13 13 24 5 18 -13z m-3658
-67 c-3 -3 -12 -4 -19 -1 -8 3 -5 6 6 6 11 1 17 -2 13 -5z m3686 -9 c20 -8 38
-19 42 -25 3 -5 18 -7 34 -4 20 4 30 1 34 -10 5 -12 0 -16 -16 -16 -12 0 -29
-5 -37 -10 -13 -9 -13 -12 3 -21 23 -13 22 -29 -2 -29 -25 0 -49 29 -32 39 9
6 9 13 0 34 -13 28 -21 31 -53 18 -19 -7 -19 -8 -1 -15 14 -5 16 -9 7 -18 -16
-16 -25 -4 -28 37 -4 40 0 41 49 20z m-3888 -5 c-3 -5 -12 -10 -18 -10 -7 0
-6 4 3 10 19 12 23 12 15 0z m260 0 c-3 -5 -13 -10 -21 -10 -8 0 -12 5 -9 10
3 6 13 10 21 10 8 0 12 -4 9 -10z m3525 -6 c0 -2 -9 -4 -20 -4 -11 0 -20 4
-20 9 0 5 9 7 20 4 11 -3 20 -7 20 -9z m-4169 -24 c18 0 9 -16 -10 -17 -13 -1
-18 4 -16 15 2 9 4 22 5 27 1 6 4 2 7 -7 2 -10 9 -18 14 -18z m339 11 c0 -5
-7 -11 -15 -15 -9 -3 -15 0 -15 9 0 8 7 15 15 15 8 0 15 -4 15 -9z m-420 -11
c0 -5 -2 -10 -4 -10 -3 0 -8 5 -11 10 -3 6 -1 10 4 10 6 0 11 -4 11 -10z m27
-35 c2 -19 0 -35 -4 -35 -12 0 -39 20 -28 20 6 0 1 7 -9 15 -18 13 -18 15 -3
15 10 0 20 7 24 15 8 22 16 11 20 -30z m-227 11 c0 -2 -9 -6 -20 -9 -11 -3
-20 -1 -20 4 0 5 9 9 20 9 11 0 20 -2 20 -4z m74 -19 c22 3 36 0 45 -11 20
-24 22 -24 -114 -42 -27 -4 -57 -13 -66 -20 -9 -8 -18 -12 -21 -9 -3 3 -23 -1
-44 -9 -22 -8 -52 -17 -69 -21 l-30 -6 25 17 c14 10 27 19 29 20 1 1 0 8 -4
14 -5 8 -11 7 -23 -2 -15 -11 -15 -11 -5 3 7 9 9 19 5 24 -4 4 5 0 20 -9 25
-17 27 -17 37 2 7 13 33 25 78 37 37 9 75 20 83 25 9 5 16 3 18 -6 2 -8 14
-11 36 -7z m4351 -18 c5 -5 -16 -9 -50 -9 -56 0 -58 1 -35 14 25 14 67 11 85
-5z m89 6 c6 -16 -12 -19 -53 -8 -23 6 -23 7 -5 14 31 12 51 10 58 -6z m313
-27 c3 -10 10 -18 16 -18 16 0 88 -52 82 -59 -3 -3 -20 2 -38 11 -18 8 -44 21
-60 28 -19 10 -24 17 -17 24 7 7 4 16 -12 28 l-23 17 24 -6 c13 -3 26 -14 28
-25z m-5051 -23 c-1 -9 -5 -15 -9 -15 -4 0 -15 0 -24 0 -16 1 -16 2 1 15 25
19 35 19 32 0z m4718 -3 c3 -5 -1 -9 -9 -9 -8 0 -12 4 -9 9 3 4 7 8 9 8 2 0 6
-4 9 -8z m25 -36 c-2 -2 -20 -6 -39 -10 -25 -4 -31 -3 -20 4 14 9 69 15 59 6z
m88 -11 c0 -8 -6 -15 -14 -15 -14 0 -17 12 -6 23 11 11 20 8 20 -8z m-65 -87
c-7 -7 -12 -8 -12 -2 0 14 12 26 19 19 2 -3 -1 -11 -7 -17z m-389 -5 c-7 -2
-19 -2 -25 0 -7 3 -2 5 12 5 14 0 19 -2 13 -5z m137 -3 c0 -5 -4 -10 -10 -10
-5 0 -10 5 -10 10 0 6 5 10 10 10 6 0 10 -4 10 -10z m325 -20 c4 -6 -6 -10
-22 -10 -22 0 -25 2 -13 10 19 12 27 12 35 0z m-938 -36 c-3 -3 -12 -4 -19 -1
-8 3 -5 6 6 6 11 1 17 -2 13 -5z m-4687 -144 c0 -5 -4 -10 -9 -10 -6 0 -13 5
-16 10 -3 6 1 10 9 10 9 0 16 -4 16 -10z m5530 -30 c0 -6 11 -8 25 -4 26 6 31
-1 16 -25 -5 -8 -14 -10 -22 -5 -7 4 -26 7 -41 6 -21 -2 -26 2 -25 18 1 14 8
20 24 20 13 0 23 -5 23 -10z m-60 -14 c0 -3 -4 -8 -10 -11 -5 -3 -10 -1 -10 4
0 6 5 11 10 11 6 0 10 -2 10 -4z m230 -29 c0 -7 -50 1 -60 10 -2 2 2 8 9 13
14 8 51 -8 51 -23z m-6145 -7 c-3 -5 -10 -10 -16 -10 -5 0 -9 5 -9 10 0 6 7
10 16 10 8 0 12 -4 9 -10z m-143 -32 c-7 -7 -12 -8 -12 -2 0 14 12 26 19 19 2
-3 -1 -11 -7 -17z m182 -9 c-3 -5 45 -7 113 -5 l118 5 -74 -24 c-52 -17 -78
-21 -87 -14 -9 7 -15 5 -22 -6 -11 -21 -77 -17 -77 5 -1 8 4 18 10 22 6 5 6 8
-2 8 -7 0 -13 6 -13 14 0 9 7 12 20 9 11 -3 17 -9 14 -14z m-104 -24 c0 -16
-9 -19 -36 -8 -16 6 -16 7 2 14 29 11 34 10 34 -6z m6156 -10 c9 -9 23 -14 30
-11 7 3 16 0 20 -6 5 -8 -7 -9 -40 -5 -55 8 -66 13 -66 32 0 18 35 12 56 -10z
m102 -47 c16 -16 15 -28 -1 -28 -7 0 -18 -9 -25 -20 -11 -18 -10 -20 10 -21
22 0 22 -1 3 -9 -13 -5 -24 -4 -30 4 -5 7 -20 18 -32 25 -13 6 -23 21 -23 32
0 15 5 20 23 17 12 -2 21 -9 20 -16 -5 -21 14 -13 20 8 6 23 18 25 35 8z
m-6698 -18 c0 -5 -4 -10 -10 -10 -5 0 -10 5 -10 10 0 6 5 10 10 10 6 0 10 -4
10 -10z m6545 0 c3 -5 -1 -10 -10 -10 -9 0 -13 5 -10 10 3 6 8 10 10 10 2 0 7
-4 10 -10z m-49 -21 c3 -6 0 -15 -7 -20 -8 -5 -17 -3 -21 4 -6 9 -8 9 -8 -1 0
-10 -3 -10 -14 0 -10 9 -11 15 -2 20 17 11 44 9 52 -3z m51 -13 c0 -16 -29
-14 -35 2 -2 7 5 12 16 12 10 0 19 -6 19 -14z m33 0 c0 -3 -4 -8 -10 -11 -5
-3 -10 -1 -10 4 0 6 5 11 10 11 6 0 10 -2 10 -4z m-6665 -26 c3 -5 -1 -10 -10
-10 -9 0 -13 5 -10 10 3 6 8 10 10 10 2 0 7 -4 10 -10z m6468 -21 c16 -9 22
-9 25 0 2 6 22 11 43 11 22 0 38 -4 35 -9 -3 -5 4 -12 17 -16 22 -6 22 -7 -5
-15 -42 -13 -148 -20 -148 -9 0 5 -10 9 -22 9 -19 0 -20 2 -8 10 8 5 11 10 7
10 -5 0 -5 5 -2 10 8 13 31 13 58 -1z m220 4 c-7 -2 -19 -2 -25 0 -7 3 -2 5
12 5 14 0 19 -2 13 -5z m102 -2 c-3 -6 2 -14 11 -19 15 -8 15 -10 0 -15 -10
-4 -20 1 -26 13 -14 25 -13 30 6 30 8 0 13 -4 9 -9z m-445 -22 c11 -6 8 -8
-12 -9 -16 0 -28 -6 -28 -12 -1 -9 -4 -8 -13 2 -7 8 -23 14 -37 12 -17 -3 -22
0 -15 6 21 21 68 22 105 1z m33 14 c-7 -2 -19 -2 -25 0 -7 3 -2 5 12 5 14 0
19 -2 13 -5z m361 -2 c4 -5 -3 -7 -14 -4 -23 6 -26 13 -6 13 8 0 17 -4 20 -9z
m29 -47 c-2 -7 5 -15 16 -19 29 -9 26 -21 -4 -20 -13 0 -30 7 -37 16 -7 9 -21
21 -31 26 -14 7 -9 9 21 9 27 0 38 -4 35 -12z m-223 -4 c8 -5 11 -10 5 -10 -5
0 -17 5 -25 10 -8 5 -10 10 -5 10 6 0 17 -5 25 -10z m-380 -10 c-20 -13 -33
-13 -25 0 3 6 14 10 23 10 15 0 15 -2 2 -10z m205 -12 c-1 -15 -9 -24 -23 -26
-28 -4 -28 13 0 32 12 9 23 16 24 16 0 0 0 -10 -1 -22z m105 12 c0 -6 -7 -13
-15 -16 -17 -7 -21 -44 -5 -44 6 0 10 -7 10 -15 0 -11 -8 -14 -32 -11 -18 3
-36 5 -39 5 -4 1 -10 8 -13 17 -3 8 -2 12 4 9 14 -9 52 4 45 15 -6 10 24 50
37 50 5 0 8 -5 8 -10z m-472 -12 c-3 -13 11 -13 78 -3 22 4 39 -1 55 -13 l23
-19 -24 -8 c-15 -5 -25 -4 -28 4 -5 15 -18 14 -36 -4 -9 -9 -17 -11 -21 -5 -3
5 -1 10 4 10 6 0 11 4 11 8 0 18 -58 0 -63 -20 -4 -14 -11 -19 -21 -15 -10 4
-16 1 -16 -8 0 -10 -9 -14 -25 -13 -14 1 -25 6 -25 10 0 4 -6 5 -14 2 -8 -3
-17 -1 -20 5 -3 5 7 12 24 16 17 4 28 11 24 16 -3 5 2 9 10 9 9 0 21 9 28 20
14 22 39 27 36 8z m687 2 c3 -5 -1 -10 -10 -10 -9 0 -13 5 -10 10 3 6 8 10 10
10 2 0 7 -4 10 -10z m-758 -16 c-3 -3 -12 -4 -19 -1 -8 3 -5 6 6 6 11 1 17 -2
13 -5z m333 2 c0 -2 -7 -7 -16 -10 -8 -3 -12 -2 -9 4 6 10 25 14 25 6z m47
-18 c-3 -8 -6 -5 -6 6 -1 11 2 17 5 13 3 -3 4 -12 1 -19z m-467 -8 c0 -14 -6
-20 -22 -19 -13 0 -17 3 -10 6 6 2 12 9 12 14 0 4 -7 6 -15 3 -8 -4 -15 -1
-15 5 0 6 11 11 25 11 18 0 25 -5 25 -20z m445 10 c-3 -5 -13 -10 -21 -10 -9
0 -12 -5 -8 -12 4 -7 3 -8 -4 -4 -7 4 -12 2 -12 -3 0 -6 -8 -11 -18 -11 -10 0
-24 -6 -31 -12 -11 -10 -13 -10 -7 0 9 15 -6 16 -22 0 -9 -9 -15 -9 -24 0 -16
16 -10 20 45 26 27 3 58 13 70 21 25 17 41 20 32 5z m235 6 c0 -11 -19 -15
-25 -6 -3 5 1 10 9 10 9 0 16 -2 16 -4z m245 -46 c2 -4 -7 -5 -20 -2 -14 2
-25 8 -25 12 0 10 38 1 45 -10z m120 10 c15 -6 23 -15 20 -21 -4 -6 2 -13 14
-16 12 -3 21 -10 21 -15 0 -10 -63 24 -90 49 -17 16 -2 17 35 3z m-1194 -18
c-11 -4 -11 -6 -1 -12 10 -6 10 -12 -3 -25 -10 -9 -17 -21 -17 -26 0 -5 -17
-9 -37 -9 -37 1 -38 1 -14 14 14 8 30 13 35 12 6 -2 8 -1 4 1 -5 3 -8 12 -8
21 0 15 2 15 11 2 9 -12 10 -12 5 3 -8 25 1 38 21 30 12 -5 13 -8 4 -11z m429
8 c0 -5 -2 -10 -4 -10 -3 0 -8 5 -11 10 -3 6 -1 10 4 10 6 0 11 -4 11 -10z
m-480 -25 c0 -14 -4 -25 -10 -25 -11 0 -14 33 -3 43 11 11 13 8 13 -18z m190
15 c-8 -5 -19 -10 -25 -10 -5 0 -3 5 5 10 8 5 20 10 25 10 6 0 3 -5 -5 -10z
m207 4 c-3 -3 -12 -4 -19 -1 -8 3 -5 6 6 6 11 1 17 -2 13 -5z m-6222 -34 c-3
-5 -12 -10 -18 -10 -7 0 -6 4 3 10 19 12 23 12 15 0z m7035 1 c0 -5 3 -17 7
-27 4 -11 2 -15 -7 -12 -20 6 -33 48 -15 48 8 0 15 -4 15 -9z m-957 -8 c-7 -2
-19 -2 -25 0 -7 3 -2 5 12 5 14 0 19 -2 13 -5z m-5788 -33 c-3 -5 -12 -10 -18
-10 -7 0 -6 4 3 10 19 12 23 12 15 0z m6752 -96 c-3 -3 -12 -4 -19 -1 -8 3 -5
6 6 6 11 1 17 -2 13 -5z m-1192 -54 c16 -7 17 -9 3 -9 -9 -1 -24 -9 -34 -18
-10 -10 -25 -19 -33 -20 -9 0 -43 -4 -76 -7 -42 -5 -56 -4 -45 3 13 9 12 11
-5 11 -11 0 -29 -6 -40 -14 -21 -14 -120 -27 -130 -17 -8 8 152 51 215 57 30
3 61 10 70 14 19 12 49 11 75 0z m-1 -85 c-25 -19 -40 -19 -24 0 7 8 20 15 28
15 13 0 12 -3 -4 -15z m-184 -25 c0 -5 -4 -10 -10 -10 -5 0 -10 5 -10 10 0 6
5 10 10 10 6 0 10 -4 10 -10z m360 0 c0 -5 -8 -10 -17 -10 -15 0 -16 2 -3 10
19 12 20 12 20 0z m-160 -30 c-8 -5 -22 -10 -30 -10 -13 0 -13 1 0 10 8 5 22
10 30 10 13 0 13 -1 0 -10z m-5520 -20 c0 -5 -5 -10 -11 -10 -5 0 -7 5 -4 10
3 6 8 10 11 10 2 0 4 -4 4 -10z m4837 -25 c-2 -5 -12 -9 -21 -9 -9 1 -16 -2
-16 -6 0 -4 -11 -7 -25 -6 -31 1 -32 10 -2 24 27 13 69 11 64 -3z m-127 -25
c0 -5 -12 -10 -27 -9 -25 0 -26 1 -8 9 27 12 35 12 35 0z m-910 -220 c0 -5 -7
-7 -15 -4 -8 4 -15 8 -15 10 0 2 7 4 15 4 8 0 15 -4 15 -10z m-100 -45 c-15
-17 -40 -20 -40 -4 0 6 7 9 15 6 8 -4 17 -2 20 3 4 6 9 10 12 10 3 0 0 -7 -7
-15z m-180 -39 c0 -2 -7 -7 -16 -10 -8 -3 -12 -2 -9 4 6 10 25 14 25 6z m-75
-26 c-3 -5 -14 -10 -23 -9 -14 0 -13 2 3 9 27 11 27 11 20 0z m-85 -50 c0 -5
-7 -10 -16 -10 -8 0 -12 5 -9 10 3 6 10 10 16 10 5 0 9 -4 9 -10z m-3230 -22
c0 -4 -4 -8 -9 -8 -6 0 -12 4 -15 8 -3 5 1 9 9 9 8 0 15 -4 15 -9z m3380 -7
c0 -13 -9 -20 -32 -24 -41 -6 -41 -6 -22 21 19 27 54 29 54 3z m-250 -1 c0 -5
-5 -10 -11 -10 -5 0 -7 5 -4 10 3 6 8 10 11 10 2 0 4 -4 4 -10z m330 -50 c0
-5 -7 -10 -15 -10 -8 0 -15 5 -15 10 0 6 7 10 15 10 8 0 15 -4 15 -10z m-291
-16 c-10 -13 -10 -17 2 -25 14 -9 11 -10 -23 -13 -7 -1 -21 -9 -32 -18 -14
-13 -23 -14 -42 -6 -19 9 -28 8 -42 -5 -14 -13 -21 -14 -31 -4 -9 9 -14 9 -20
-2 -6 -9 -11 -10 -15 -2 -7 11 33 32 46 24 4 -2 5 4 1 14 -5 15 -3 16 8 6 7
-7 18 -13 24 -13 5 0 3 4 -5 10 -17 10 -19 9 65 34 69 20 81 20 64 0z m28 -16
c-3 -8 -6 -5 -6 6 -1 11 2 17 5 13 3 -3 4 -12 1 -19z m83 2 c0 -5 -7 -10 -16
-10 -8 0 -12 5 -9 10 3 6 10 10 16 10 5 0 9 -4 9 -10z m-375 -79 c-3 -7 -12
-11 -18 -10 -7 1 -20 -1 -30 -6 -10 -4 -21 -5 -24 -2 -3 4 6 11 20 16 14 5 28
15 32 21 5 8 11 8 17 2 6 -6 7 -15 3 -21z m45 2 c0 -13 -3 -13 -15 -3 -8 7
-15 16 -15 21 0 5 7 6 15 3 8 -4 15 -13 15 -21z m186 2 c17 16 44 20 44 6 0
-5 -15 -14 -32 -20 -24 -9 -29 -14 -19 -20 9 -6 10 -10 2 -16 -7 -4 -18 -2
-26 5 -10 8 -19 5 -39 -15 -21 -21 -29 -24 -46 -15 -11 6 -20 16 -20 21 0 6
-7 9 -15 5 -25 -9 -17 11 13 30 15 10 37 17 50 15 12 -1 22 3 22 9 0 8 8 7 25
-4 23 -15 27 -15 41 -1z m552 -17 c-4 -27 -28 -36 -28 -10 0 20 8 32 22 32 5
0 8 -10 6 -22z m-728 -23 c0 -9 -6 -12 -15 -9 -8 4 -22 1 -30 -6 -20 -16 -19
-6 1 14 19 20 44 21 44 1z m-324 -22 c-10 -10 -19 5 -10 18 6 11 8 11 12 0 2
-7 1 -15 -2 -18z m241 -18 c-1 -19 -7 -35 -13 -35 -6 0 -26 -3 -45 -7 -29 -6
-31 -5 -18 9 7 9 20 13 26 11 7 -3 13 0 13 6 0 6 7 11 15 11 8 0 15 5 15 10 0
6 -7 10 -16 8 -10 -2 -19 3 -21 10 -3 7 5 12 21 12 23 0 26 -3 23 -35z m525
15 c-34 -21 -62 -26 -62 -12 0 5 17 13 38 19 56 16 60 15 24 -7z m-582 0 c0
-5 -8 -11 -17 -11 -24 -2 -35 -4 -53 -11 -8 -4 -30 -8 -49 -11 l-33 -4 23 18
c13 10 32 16 41 13 10 -3 26 -1 35 5 23 13 53 14 53 1z m166 -15 c-10 -8 -23
-12 -28 -9 -14 9 -2 19 24 21 22 2 22 1 4 -12z m-2996 -24 c0 -10 -7 -22 -16
-25 -10 -4 -13 -2 -7 7 4 6 8 15 9 20 3 15 4 17 9 17 3 0 5 -9 5 -19z m2655
10 c3 -5 1 -12 -4 -15 -13 -8 -42 4 -35 15 7 12 31 12 39 0z m-59 -14 c4 -4
-2 -7 -14 -7 -12 0 -22 4 -22 9 0 10 26 9 36 -2z m-2368 -17 c-11 -18 -10 -23
11 -39 14 -11 20 -21 13 -25 -6 -3 -21 8 -33 25 -22 31 -22 32 -4 45 25 19 27
18 13 -6z m2187 0 c18 -20 17 -20 -25 -18 -38 1 -41 3 -22 11 12 6 22 14 22
19 0 12 5 10 25 -12z m121 9 c4 -7 1 -10 -7 -7 -8 3 -22 1 -31 -4 -11 -5 -18
-5 -18 1 0 8 15 15 42 20 4 0 10 -4 14 -10z m-401 -19 c-6 -9 23 -35 31 -28 3
3 6 15 7 26 1 15 5 18 13 11 7 -5 10 -19 7 -29 -4 -17 -14 -20 -59 -20 -39 0
-54 4 -54 14 0 8 11 17 25 20 16 4 23 11 19 18 -4 7 -3 8 5 4 6 -4 9 -11 6
-16z m593 8 c-3 -14 -18 -28 -30 -28 -13 0 -9 28 5 33 21 9 27 7 25 -5z m312
-8 c0 -5 -7 -10 -16 -10 -8 0 -12 5 -9 10 3 6 10 10 16 10 5 0 9 -4 9 -10z
m-416 -22 c-8 -29 -7 -28 -35 -33 -22 -4 -22 -3 -6 9 9 7 17 18 17 24 0 8 11
17 28 21 2 1 0 -9 -4 -21z m-354 2 c0 -5 -5 -10 -11 -10 -5 0 -7 5 -4 10 3 6
8 10 11 10 2 0 4 -4 4 -10z m-300 -24 c0 -11 -19 -15 -25 -6 -3 5 1 10 9 10 9
0 16 -2 16 -4z m431 -27 c-11 -11 -26 -17 -31 -14 -6 3 -10 0 -11 -7 0 -7 -4
-4 -8 7 -10 24 -3 29 40 32 l32 2 -22 -20z m-146 -9 c3 -5 1 -10 -4 -10 -6 0
-11 5 -11 10 0 6 2 10 4 10 3 0 8 -4 11 -10z m-15 -31 c0 -4 -7 -6 -15 -3 -8
4 -15 10 -15 15 0 4 7 6 15 3 8 -4 15 -10 15 -15z m-1050 -134 c0 -13 -48 -30
-58 -21 -8 8 39 46 49 40 5 -3 9 -11 9 -19z m-205 -15 c3 -5 1 -10 -4 -10 -6
0 -11 5 -11 10 0 6 2 10 4 10 3 0 8 -4 11 -10z m-105 -25 c-7 -8 -16 -12 -21
-9 -13 8 -1 24 18 24 13 0 13 -3 3 -15z m-570 -40 c10 -12 10 -15 -2 -15 -8 0
-15 7 -15 15 0 8 1 15 2 15 2 0 8 -7 15 -15z m510 -8 c0 -7 -9 -23 -20 -35
-11 -12 -20 -26 -20 -32 0 -5 -5 -10 -11 -10 -5 0 -8 -3 -6 -7 3 -5 -1 -14 -9
-20 -7 -7 -15 -9 -19 -4 -3 5 -1 12 5 16 5 3 10 19 10 36 0 16 5 29 10 29 6 0
20 9 32 20 26 24 28 24 28 7z m-60 -7 c0 -5 -4 -10 -9 -10 -6 0 -13 5 -16 10
-3 6 1 10 9 10 9 0 16 -4 16 -10z m-260 -80 c0 -5 -4 -10 -10 -10 -5 0 -10 5
-10 10 0 6 5 10 10 10 6 0 10 -4 10 -10z"/>
<path d="M7356 3373 c-6 -14 -5 -15 5 -6 7 7 10 15 7 18 -3 3 -9 -2 -12 -12z"/>
<path d="M6276 3325 c-3 -8 -1 -15 4 -15 6 0 10 7 10 15 0 8 -2 15 -4 15 -2 0
-6 -7 -10 -15z"/>
<path d="M6823 3242 c-18 -2 -33 -7 -33 -12 0 -8 58 -3 69 6 8 7 -4 9 -36 6z"/>
<path d="M2806 2858 c3 -4 11 -5 19 -1 21 7 19 12 -4 10 -11 0 -18 -5 -15 -9z"/>
<path d="M2757 2853 c-13 -13 -7 -21 13 -16 11 3 17 9 14 14 -6 11 -18 12 -27
2z"/>
<path d="M7276 2161 c-4 -5 1 -8 9 -7 21 3 31 16 12 16 -9 0 -18 -4 -21 -9z"/>
<path d="M6864 3560 c0 -11 3 -20 7 -20 4 0 9 9 12 20 3 12 0 20 -7 20 -6 0
-12 -9 -12 -20z"/>
<path d="M6651 3551 c-24 -15 33 -25 66 -12 l28 11 -32 -5 c-18 -2 -33 0 -33
5 0 12 -11 12 -29 1z"/>
<path d="M6995 3550 c3 -5 15 -10 26 -10 11 0 17 5 14 10 -3 6 -15 10 -26 10
-11 0 -17 -4 -14 -10z"/>
<path d="M6345 3540 c-3 -5 1 -10 9 -10 9 0 16 5 16 10 0 6 -4 10 -9 10 -6 0
-13 -4 -16 -10z"/>
<path d="M7600 3526 c0 -2 7 -7 16 -10 8 -3 12 -2 9 4 -6 10 -25 14 -25 6z"/>
<path d="M7745 3520 c6 -10 91 -50 107 -50 16 0 -12 30 -43 46 -32 16 -73 19
-64 4z"/>
<path d="M5930 3480 c0 -5 4 -10 9 -10 6 0 13 5 16 10 3 6 -1 10 -9 10 -9 0
-16 -4 -16 -10z"/>
<path d="M6592 3478 c6 -18 28 -21 28 -4 0 9 -7 16 -16 16 -9 0 -14 -5 -12
-12z"/>
<path d="M6158 3453 c7 -3 16 -2 19 1 4 3 -2 6 -13 5 -11 0 -14 -3 -6 -6z"/>
<path d="M5953 3423 c9 -2 23 -2 30 0 6 3 -1 5 -18 5 -16 0 -22 -2 -12 -5z"/>
<path d="M7030 3396 c0 -2 11 -6 25 -8 14 -3 25 -1 25 3 0 5 -11 9 -25 9 -14
0 -25 -2 -25 -4z"/>
<path d="M6725 3353 c-33 -8 -38 -20 -11 -25 14 -3 26 -1 26 3 0 5 7 9 15 9 8
0 15 5 15 10 0 10 -11 11 -45 3z"/>
<path d="M5166 3315 c-3 -8 -11 -15 -18 -15 -9 0 -8 3 2 10 13 8 12 10 -2 10
-10 0 -18 -7 -18 -15 0 -8 -5 -15 -11 -15 -5 0 -7 5 -4 10 10 16 -21 12 -35
-5 -18 -21 12 -31 50 -15 16 6 34 9 39 5 7 -4 11 4 11 19 0 29 -5 33 -14 11z"/>
<path d="M5395 3300 c-3 -5 1 -10 9 -10 9 0 16 5 16 10 0 6 -4 10 -9 10 -6 0
-13 -4 -16 -10z"/>
<path d="M4973 3284 c-8 -4 -9 -13 -3 -29 5 -12 6 -26 2 -30 -3 -3 2 -3 12 1
14 5 15 9 4 15 -11 7 -10 11 2 19 13 9 13 10 0 10 -13 0 -13 1 0 10 15 10 4
12 -17 4z"/>
<path d="M5035 3280 c-3 -5 -2 -10 4 -10 5 0 13 5 16 10 3 6 2 10 -4 10 -5 0
-13 -4 -16 -10z"/>
<path d="M4817 3243 c-10 -9 -9 -33 1 -33 4 0 8 9 9 20 2 21 0 24 -10 13z"/>
<path d="M4672 3218 c-7 -7 -12 -9 -12 -5 0 4 -9 3 -20 -3 -13 -7 -20 -7 -20
-1 0 6 -16 1 -35 -10 -19 -12 -35 -22 -35 -24 0 -1 15 -5 34 -7 19 -2 33 0 30
4 -2 4 12 10 32 14 19 3 38 13 41 21 7 19 -1 25 -15 11z"/>
<path d="M4710 3215 c0 -19 9 -19 34 0 19 14 19 15 -7 15 -17 0 -27 -5 -27
-15z"/>
<path d="M4400 3160 c-9 -17 -8 -20 11 -20 17 0 19 3 10 14 -9 11 -9 15 1 19
9 4 10 6 1 6 -7 1 -17 -8 -23 -19z"/>
<path d="M4668 3173 c6 -2 18 -2 25 0 6 3 1 5 -13 5 -14 0 -19 -2 -12 -5z"/>
<path d="M4276 3125 c-3 -8 -1 -15 4 -15 6 0 10 7 10 15 0 8 -2 15 -4 15 -2 0
-6 -7 -10 -15z"/>
<path d="M4042 3112 c6 -21 -13 -47 -25 -35 -4 3 -7 2 -7 -4 0 -18 23 -20 50
-6 18 9 20 13 8 13 -11 0 -16 6 -13 20 2 11 -1 23 -7 26 -7 5 -9 0 -6 -14z"/>
<path d="M4098 3123 c7 -3 16 -2 19 1 4 3 -2 6 -13 5 -11 0 -14 -3 -6 -6z"/>
<path d="M4186 3105 c4 -8 10 -12 15 -9 11 6 2 24 -11 24 -5 0 -7 -7 -4 -15z"/>
<path d="M3913 3080 c-3 -11 -9 -20 -14 -20 -5 0 -9 -5 -9 -11 0 -6 7 -8 16
-5 8 3 12 2 9 -4 -3 -6 1 -10 9 -10 9 0 16 7 16 15 0 8 -4 15 -10 15 -15 0 0
28 18 33 11 3 9 5 -6 6 -16 1 -26 -6 -29 -19z"/>
<path d="M3792 3073 c-13 -5 -7 -23 9 -23 6 0 8 4 5 9 -4 5 0 12 6 14 7 3 9 5
3 5 -5 0 -16 -2 -23 -5z"/>
<path d="M3960 3060 c0 -13 11 -13 30 0 12 8 11 10 -7 10 -13 0 -23 -4 -23
-10z"/>
<path d="M3730 3038 c0 -6 3 -8 6 -5 4 3 15 2 25 -4 13 -6 19 -6 19 0 0 6 8 8
18 4 9 -3 14 -3 10 2 -12 12 -78 15 -78 3z"/>
<path d="M3824 3028 c1 -12 8 -22 18 -24 14 -2 16 1 8 16 -8 15 -6 19 13 23
16 3 14 5 -9 6 -26 1 -31 -3 -30 -21z"/>
<path d="M4095 3040 c-3 -5 -2 -10 4 -10 5 0 13 5 16 10 3 6 2 10 -4 10 -5 0
-13 -4 -16 -10z"/>
<path d="M3489 3027 c-9 -7 -14 -18 -12 -24 5 -14 24 -18 22 -5 -3 19 2 25 11
12 8 -13 10 -13 10 2 0 23 -12 29 -31 15z"/>
<path d="M3626 3014 c-9 -24 -2 -26 12 -4 7 11 8 20 3 20 -5 0 -12 -7 -15 -16z"/>
<path d="M3313 2999 c-33 -10 -45 -29 -19 -29 8 0 17 -6 19 -12 4 -10 6 -10 6
0 1 6 12 12 26 12 18 0 25 5 25 20 0 22 -8 23 -57 9z"/>
<path d="M3227 2970 c-3 -11 -1 -18 3 -15 5 3 11 -1 13 -7 3 -7 5 -1 4 15 -2
32 -12 36 -20 7z"/>
<path d="M2170 2860 c-9 -6 -10 -10 -3 -10 6 0 15 5 18 10 8 12 4 12 -15 0z"/>
<path d="M2360 2730 c0 -5 11 -10 24 -10 14 0 28 5 31 10 4 6 -7 10 -24 10
-17 0 -31 -4 -31 -10z"/>
<path d="M1535 2610 c-3 -5 -1 -10 4 -10 6 0 11 5 11 10 0 6 -2 10 -4 10 -3 0
-8 -4 -11 -10z"/>
<path d="M1450 2585 c-14 -16 -3 -20 19 -6 8 5 9 11 3 15 -5 3 -15 -1 -22 -9z"/>
<path d="M1369 2574 c-13 -16 2 -18 35 -5 19 7 19 8 -2 13 -12 4 -26 0 -33 -8z"/>
<path d="M1033 2555 c-3 -9 -3 -18 0 -22 10 -10 37 6 37 22 0 20 -29 20 -37 0z"/>
<path d="M1915 2550 c-3 -5 -1 -10 4 -10 6 0 11 5 11 10 0 6 -2 10 -4 10 -3 0
-8 -4 -11 -10z"/>
<path d="M1110 2470 c0 -12 17 -12 45 0 17 7 15 9 -12 9 -18 1 -33 -3 -33 -9z"/>
<path d="M743 2300 c-1 -11 4 -20 13 -20 8 0 14 9 14 20 0 11 -6 20 -13 20 -7
0 -13 -9 -14 -20z"/>
<path d="M640 2280 c0 -5 14 -7 33 -3 45 8 47 13 4 13 -20 0 -37 -4 -37 -10z"/>
<path d="M8253 2253 c9 -2 25 -2 35 0 9 3 1 5 -18 5 -19 0 -27 -2 -17 -5z"/>
<path d="M8100 2174 c1 -17 35 -52 66 -68 47 -23 118 -33 112 -15 -3 8 -29 18
-62 24 -31 5 -60 15 -64 20 -13 19 -52 48 -52 39z"/>
<path d="M605 2138 l-20 -21 23 12 c12 6 22 16 22 21 0 13 -2 12 -25 -12z"/>
<path d="M7895 2130 c3 -5 8 -10 11 -10 2 0 4 5 4 10 0 6 -5 10 -11 10 -5 0
-7 -4 -4 -10z"/>
<path d="M542 2098 c2 -6 10 -14 16 -16 7 -2 10 2 6 12 -7 18 -28 22 -22 4z"/>
<path d="M618 2103 c7 -3 16 -2 19 1 4 3 -2 6 -13 5 -11 0 -14 -3 -6 -6z"/>
<path d="M515 2093 c3 -7 1 -13 -4 -13 -6 0 -11 -5 -11 -11 0 -6 6 -9 14 -6 8
3 17 1 20 -6 2 -7 5 -7 5 -1 1 5 -6 19 -15 30 -8 10 -13 13 -9 7z"/>
<path d="M600 2035 c7 -9 16 -12 19 -8 4 4 10 11 15 16 5 4 -3 7 -19 7 -24 0
-26 -2 -15 -15z"/>
<path d="M643 1964 c-18 -8 -33 -19 -33 -24 0 -15 16 -12 30 5 7 8 18 15 26
15 7 0 16 5 19 10 8 13 -3 12 -42 -6z"/>
<path d="M414 1945 c3 -8 1 -15 -4 -15 -6 0 -10 -5 -10 -12 0 -9 3 -9 12 0 15
15 19 42 6 42 -6 0 -8 -7 -4 -15z"/>
<path d="M7250 1920 c0 -6 -3 -9 -8 -6 -4 2 -12 -6 -19 -20 -8 -18 -8 -26 2
-34 9 -8 15 -8 20 0 8 12 95 14 95 1 0 -13 -26 -21 -65 -21 -18 0 -38 -7 -45
-15 -10 -12 -10 -15 4 -15 9 0 16 -4 16 -9 0 -10 31 -24 38 -16 3 2 -1 11 -8
20 -11 13 -9 15 14 15 14 0 26 -4 26 -9 0 -5 10 -11 21 -14 19 -5 21 -3 16 28
-6 38 3 45 49 39 20 -2 15 1 -16 12 -25 8 -64 16 -86 17 -26 1 -40 6 -37 13 2
7 0 15 -6 19 -6 3 -11 1 -11 -5z"/>
<path d="M364 1909 c-3 -6 -1 -16 4 -21 8 -8 8 -18 1 -32 -9 -20 -9 -20 10 1
11 14 17 31 14 43 -6 22 -18 26 -29 9z"/>
<path d="M7137 1907 c-3 -8 4 -14 20 -15 22 -2 24 0 13 13 -15 18 -26 19 -33
2z"/>
<path d="M680 1879 c0 -5 5 -7 10 -4 6 3 10 8 10 11 0 2 -4 4 -10 4 -5 0 -10
-5 -10 -11z"/>
<path d="M7072 1868 c-36 -22 -40 -33 -16 -42 25 -9 56 3 50 20 -3 8 1 14 9
14 8 0 15 4 15 9 0 19 -28 18 -58 -1z"/>
<path d="M7166 1854 c-4 -9 -4 -19 -1 -22 3 -3 5 0 5 7 0 7 4 9 10 6 6 -3 7 1
4 9 -8 20 -10 20 -18 0z"/>
<path d="M6783 1844 c1 -10 -2 -19 -8 -20 -5 0 -21 -6 -35 -12 -20 -9 -11 -10
45 -4 39 3 82 7 97 7 15 0 30 6 33 13 3 9 -11 12 -53 12 -32 0 -63 5 -69 11
-8 8 -11 6 -10 -7z"/>
<path d="M6950 1841 l-25 -21 29 5 c16 2 34 10 40 16 8 9 8 10 -1 5 -6 -3 -13
-1 -15 5 -2 6 -14 2 -28 -10z"/>
<path d="M6605 1800 c3 -5 13 -10 21 -10 8 0 12 5 9 10 -3 6 -13 10 -21 10 -8
0 -12 -4 -9 -10z"/>
<path d="M6668 1803 c7 -3 16 -2 19 1 4 3 -2 6 -13 5 -11 0 -14 -3 -6 -6z"/>
<path d="M7022 1794 c-13 -8 -35 -15 -50 -14 -48 4 -62 0 -62 -15 0 -7 8 -19
18 -24 15 -9 15 -12 2 -21 -8 -5 -34 -10 -56 -10 -52 0 -104 -10 -104 -20 0
-4 21 -3 47 1 25 5 49 7 52 3 8 -8 -21 -24 -49 -25 -21 -1 -22 -2 -5 -6 11 -3
28 -12 39 -21 15 -14 18 -15 16 -2 -1 8 1 25 5 38 10 29 64 32 72 3 3 -10 16
-21 29 -24 13 -2 21 0 18 4 -3 5 -13 9 -22 10 -11 0 -12 3 -4 6 6 2 12 11 12
19 0 9 12 14 35 14 41 0 55 21 31 46 -13 13 -14 19 -5 30 17 21 6 26 -19 8z
m-22 -64 c0 -5 -7 -10 -15 -10 -8 0 -15 5 -15 10 0 6 7 10 15 10 8 0 15 -4 15
-10z"/>
<path d="M7101 1801 c-1 -8 -9 -23 -18 -34 -17 -19 -17 -19 6 -12 14 4 21 3
18 -2 -4 -6 4 -8 18 -5 19 3 25 0 25 -13 0 -12 -5 -15 -19 -10 -11 3 -22 1
-26 -5 -4 -6 -14 -9 -22 -6 -8 4 -11 1 -8 -5 4 -6 1 -10 -6 -8 -33 4 -48 -1
-43 -16 4 -9 11 -14 18 -13 10 2 44 -3 120 -18 18 -4 26 -2 22 4 -9 15 20 22
55 15 l31 -6 -23 -13 c-13 -7 -20 -13 -15 -14 5 0 3 -7 -4 -15 -10 -12 -10
-15 1 -17 8 0 19 -2 24 -2 6 -1 15 -5 21 -9 6 -3 38 -9 70 -13 47 -5 57 -4 47
6 -6 7 -9 18 -7 25 3 8 -9 14 -33 18 -22 4 -53 19 -72 36 -27 24 -32 35 -29
62 3 33 3 33 -53 44 -40 7 -55 14 -51 23 3 11 0 12 -16 3 -15 -8 -22 -8 -25 2
-4 8 -6 8 -6 -2z m75 -116 c-17 -17 -36 -20 -36 -5 0 20 2 25 11 22 5 -1 12 5
16 14 5 15 7 15 15 0 6 -11 4 -21 -6 -31z m-51 25 c-3 -5 -11 -10 -16 -10 -6
0 -7 5 -4 10 3 6 11 10 16 10 6 0 7 -4 4 -10z"/>
<path d="M6555 1790 c-3 -5 -1 -10 4 -10 6 0 11 5 11 10 0 6 -2 10 -4 10 -3 0
-8 -4 -11 -10z"/>
<path d="M7655 1770 c11 -5 29 -8 40 -8 16 0 15 2 -5 8 -34 11 -60 11 -35 0z"/>
<path d="M6821 1739 c8 -15 17 -19 32 -15 12 3 27 6 34 6 7 0 10 7 6 16 -3 9
-9 12 -12 7 -3 -5 -15 -13 -26 -16 -20 -7 -20 -7 -1 8 19 14 18 15 -12 15 -30
0 -32 -2 -21 -21z"/>
<path d="M7280 1750 c10 -6 11 -10 3 -10 -7 0 -13 -4 -13 -10 0 -15 43 -5 48
11 3 11 2 12 -6 1 -7 -11 -10 -11 -15 2 -4 9 -12 16 -19 16 -9 0 -8 -3 2 -10z"/>
<path d="M7334 1734 c3 -9 6 -22 6 -29 0 -8 10 -15 23 -17 12 -2 21 -9 20 -16
-4 -15 23 -16 32 -2 5 8 11 8 20 0 15 -12 30 3 20 20 -3 6 -1 10 5 10 6 0 2
10 -9 22 -19 20 -22 20 -39 5 -12 -11 -22 -13 -32 -7 -8 5 -10 10 -5 10 15 0
-18 20 -34 20 -8 0 -11 -6 -7 -16z"/>
<path d="M6542 1733 c-6 -2 -10 -9 -6 -14 8 -14 21 -11 28 6 6 15 1 17 -22 8z"/>
<path d="M7476 1731 c-6 -9 -2 -39 7 -47 4 -4 7 -2 7 5 0 7 9 9 24 5 18 -4 25
-1 29 15 3 12 1 19 -4 15 -5 -3 -15 -2 -21 3 -18 11 -37 13 -42 4z"/>
<path d="M7781 1711 c-7 -5 -22 -6 -32 -4 -11 3 -19 0 -19 -6 0 -8 17 -11 53
-9 28 2 52 8 52 13 0 13 -36 17 -54 6z"/>
<path d="M7575 1680 c3 -5 15 -10 26 -10 10 0 19 5 19 10 0 6 -12 10 -26 10
-14 0 -23 -4 -19 -10z"/>
<path d="M6348 1673 c7 -3 16 -2 19 1 4 3 -2 6 -13 5 -11 0 -14 -3 -6 -6z"/>
<path d="M7516 1644 c-3 -9 -6 -17 -6 -18 0 -6 40 -3 45 3 2 5 43 7 90 5 47
-2 85 1 85 6 0 10 -134 18 -158 9 -9 -4 -24 -3 -34 2 -11 6 -18 4 -22 -7z"/>
<path d="M6340 1640 c0 -5 5 -10 10 -10 6 0 10 5 10 10 0 6 -4 10 -10 10 -5 0
-10 -4 -10 -10z"/>
<path d="M6814 1641 c9 -14 -18 -42 -44 -45 -14 -1 -34 -6 -44 -11 -13 -6 -21
-5 -23 2 -3 8 -13 8 -36 -1 -18 -6 -58 -11 -89 -11 -32 0 -58 -3 -58 -8 0 -5
16 -6 36 -2 24 4 34 3 29 -4 -3 -6 -17 -11 -30 -11 -13 0 -27 -5 -31 -12 -5
-8 -2 -9 9 -5 9 3 50 9 92 13 42 4 78 11 81 16 3 5 15 1 26 -9 14 -12 19 -13
16 -4 -2 10 15 18 57 27 75 16 98 17 90 3 -4 -6 2 -5 14 3 34 21 25 28 -35 28
-51 0 -55 2 -49 20 4 12 2 20 -5 20 -6 0 -9 -4 -6 -9z"/>
<path d="M7082 1639 c-13 -5 -28 -7 -33 -4 -5 4 -6 -2 -2 -11 5 -14 3 -16 -11
-11 -10 4 -20 7 -22 7 -3 0 -2 5 2 12 5 8 2 9 -10 5 -10 -4 -26 -7 -37 -7 -19
0 -22 -19 -6 -31 16 -12 130 -1 138 13 9 14 9 14 13 -19 1 -12 -1 -20 -6 -17
-5 3 -8 -7 -6 -23 3 -24 0 -28 -21 -25 -13 1 -29 -5 -37 -15 -12 -16 -13 -15
-14 15 0 37 -6 39 -40 11 -22 -17 -23 -19 -5 -17 13 2 19 -2 17 -11 -2 -7 4
-21 13 -31 15 -17 15 -19 -7 -34 -12 -9 -28 -16 -35 -16 -6 0 -15 -5 -19 -11
-4 -8 1 -9 17 -4 36 12 138 11 143 0 6 -18 -14 -45 -35 -45 -12 0 -17 -4 -14
-11 4 -6 -1 -17 -11 -24 -17 -13 -15 -14 21 -10 22 3 93 7 158 9 95 2 117 0
113 -11 -3 -8 2 -13 14 -13 11 0 20 -5 20 -11 0 -6 -9 -9 -20 -6 -10 3 -21 0
-22 -5 -3 -7 -12 -7 -27 1 -26 15 -26 15 -35 -22 -6 -26 -5 -27 21 -21 47 10
54 14 48 24 -4 6 8 10 29 10 35 0 49 14 24 23 -10 3 -10 7 0 20 10 12 20 14
36 7 13 -4 29 -4 37 0 11 7 11 10 -3 15 -9 4 -29 8 -45 9 -34 4 -64 16 -82 33
-9 9 -17 11 -25 4 -15 -13 -88 -2 -79 11 3 7 -10 9 -36 6 -37 -3 -42 -1 -48
20 -3 12 -3 36 1 52 4 22 1 32 -12 39 -14 9 -11 10 16 11 36 0 44 -24 15 -46
-21 -16 -5 -18 31 -4 16 6 27 6 31 0 4 -6 2 -10 -3 -10 -5 0 -12 -9 -15 -20
-4 -17 0 -20 24 -20 16 0 29 5 29 10 0 7 6 7 19 0 28 -14 54 -13 45 3 -6 10
-4 10 7 0 15 -14 79 -18 79 -5 0 5 -14 9 -31 10 -36 1 -57 16 -39 27 7 4 15 3
19 -2 9 -13 36 -9 33 6 -5 22 -26 36 -57 38 -28 1 -29 0 -10 -13 17 -13 17
-14 1 -14 -10 0 -14 -5 -10 -11 4 -7 -1 -10 -12 -7 -12 2 -18 11 -16 24 2 15
-6 24 -33 34 -29 11 -35 19 -35 44 l0 30 -28 -27 c-33 -32 -42 -34 -42 -7 0
14 -5 18 -17 13 -13 -5 -15 -2 -11 15 4 12 2 22 -4 22 -5 0 -6 5 -2 12 4 6 3
8 -4 4 -5 -3 -12 -2 -14 3 -2 5 -13 5 -26 0z m60 -151 c-7 -7 -12 -8 -12 -2 0
14 12 26 19 19 2 -3 -1 -11 -7 -17z m-59 -28 c3 -12 0 -20 -8 -20 -8 0 -11 8
-8 20 3 11 7 20 8 20 1 0 5 -9 8 -20z m267 -105 c0 -2 -9 -3 -19 -2 -11 0 -18
5 -15 9 4 6 34 0 34 -7z"/>
<path d="M6738 1633 c7 -3 16 -2 19 1 4 3 -2 6 -13 5 -11 0 -14 -3 -6 -6z"/>
<path d="M6595 1620 c-3 -5 -1 -10 4 -10 6 0 11 5 11 10 0 6 -2 10 -4 10 -3 0
-8 -4 -11 -10z"/>
<path d="M7556 1615 c-9 -25 85 -63 113 -46 11 7 7 13 -14 27 -21 14 -30 15
-33 6 -3 -9 -12 -6 -32 8 -24 17 -29 18 -34 5z"/>
<path d="M658 1613 c-20 -5 -23 -19 -7 -29 6 -3 21 3 32 15 22 21 15 25 -25
14z"/>
<path d="M5862 1606 c-35 -20 -37 -26 -9 -26 16 0 30 8 37 20 12 22 5 24 -28
6z"/>
<path d="M6405 1600 c-4 -6 6 -7 27 -3 44 8 48 13 10 13 -17 0 -34 -4 -37 -10z"/>
<path d="M5907 1573 c-10 -9 -9 -23 2 -23 5 0 11 7 15 15 5 15 -5 20 -17 8z"/>
<path d="M6190 1571 c-8 -6 -18 -7 -22 -5 -4 3 -8 0 -8 -5 0 -6 9 -11 20 -11
11 0 20 4 20 9 0 5 8 12 18 14 12 3 13 5 2 6 -8 0 -22 -3 -30 -8z"/>
<path d="M7715 1570 c-8 -13 20 -24 36 -15 8 6 7 10 -2 16 -18 11 -26 11 -34
-1z"/>
<path d="M7683 1553 c-16 -6 -17 -33 -3 -33 11 0 26 28 19 34 -2 2 -10 1 -16
-1z"/>
<path d="M6006 1531 c-4 -5 3 -7 14 -4 23 6 26 13 6 13 -8 0 -17 -4 -20 -9z"/>
<path d="M6270 1523 c0 -9 8 -10 28 -3 15 5 34 11 42 13 8 3 -4 4 -27 4 -27
-1 -43 -6 -43 -14z"/>
<path d="M6450 1530 c0 -5 5 -10 10 -10 6 0 10 5 10 10 0 6 -4 10 -10 10 -5 0
-10 -4 -10 -10z"/>
<path d="M6733 1486 c3 -8 1 -17 -6 -20 -7 -2 -2 -5 10 -5 37 -2 51 -11 46
-32 -7 -25 9 -25 25 1 10 16 10 20 0 20 -9 0 -8 3 2 10 8 5 30 10 48 10 24 0
32 -5 33 -17 0 -15 2 -15 9 2 5 11 9 23 9 27 1 8 -96 1 -111 -8 -7 -4 -8 -2
-4 4 4 7 3 12 -3 12 -5 0 -12 -6 -15 -12 -3 -10 -9 -8 -19 5 -17 21 -31 23
-24 3z"/>
<path d="M6931 1486 c-9 -10 -8 -15 3 -19 9 -4 18 -2 22 4 4 6 11 6 20 -2 11
-9 14 -8 14 4 0 13 -20 27 -40 27 -4 0 -13 -6 -19 -14z"/>
<path d="M584 1463 c-14 -15 -21 -29 -15 -31 12 -4 61 37 61 51 0 15 -22 6
-46 -20z"/>
<path d="M7530 1478 c0 -4 8 -8 18 -8 14 0 15 -2 2 -10 -16 -10 -11 -13 35
-23 12 -3 6 -5 -14 -6 -29 -1 -32 -3 -21 -16 11 -13 8 -15 -21 -16 -20 -1 -26
-3 -14 -6 44 -10 50 -13 36 -23 -8 -4 -21 -5 -30 -2 -14 5 -14 3 -2 -11 12
-15 11 -17 -7 -17 -14 0 -19 -7 -19 -24 0 -14 6 -27 13 -30 24 -9 4 -33 -37
-45 -21 -6 -39 -16 -39 -21 0 -13 17 -12 43 2 12 7 27 13 32 14 51 10 65 24
59 58 -6 33 3 51 19 37 7 -5 14 -9 17 -9 20 0 60 -16 60 -24 0 -5 5 -6 10 -3
6 4 25 2 43 -3 17 -6 55 -13 82 -16 l50 -5 -40 19 c-22 11 -60 20 -84 20 -35
0 -42 3 -37 16 3 9 6 17 6 18 0 1 19 0 43 -2 39 -3 41 -2 23 13 -11 8 -24 15
-30 15 -5 0 -1 7 10 15 18 13 17 14 -19 15 -24 0 -40 5 -43 15 -4 8 -17 15
-30 15 -15 0 -24 6 -24 15 0 8 -9 15 -21 15 -11 0 -18 4 -15 9 3 5 -8 11 -24
13 -17 3 -30 1 -30 -4z"/>
<path d="M7426 1469 c3 -5 26 -9 51 -9 26 0 44 2 42 4 -9 8 -98 13 -93 5z"/>
<path d="M5343 1448 c-20 -7 -33 -17 -32 -27 0 -10 2 -12 6 -3 2 6 14 12 26
12 12 1 36 7 52 15 29 13 29 13 5 13 -14 0 -40 -5 -57 -10z"/>
<path d="M6660 1445 c-7 -9 -11 -18 -8 -20 3 -3 11 1 18 10 7 9 11 18 8 20 -3
3 -11 -1 -18 -10z"/>
<path d="M5465 1440 c-8 -13 5 -13 25 0 13 8 13 10 -2 10 -9 0 -20 -4 -23 -10z"/>
<path d="M5848 1443 c7 -3 16 -2 19 1 4 3 -2 6 -13 5 -11 0 -14 -3 -6 -6z"/>
<path d="M7460 1440 c14 -4 34 -8 45 -9 16 -1 17 1 5 9 -8 5 -28 9 -45 9 -29
-1 -29 -1 -5 -9z"/>
<path d="M6736 1425 c-3 -9 0 -15 9 -15 9 0 12 6 9 15 -4 8 -7 15 -9 15 -2 0
-5 -7 -9 -15z"/>
<path d="M783 1423 c15 -2 39 -2 55 0 15 2 2 4 -28 4 -30 0 -43 -2 -27 -4z"/>
<path d="M5233 1415 c0 -8 4 -12 9 -9 5 3 6 10 3 15 -9 13 -12 11 -12 -6z"/>
<path d="M6504 1416 c-9 -24 0 -59 16 -64 12 -4 13 -2 3 9 -19 20 -16 39 7 39
11 0 20 5 20 11 0 5 -4 7 -10 4 -5 -3 -10 -1 -10 4 0 16 -20 13 -26 -3z"/>
<path d="M5700 1410 c0 -5 4 -10 9 -10 6 0 13 5 16 10 3 6 -1 10 -9 10 -9 0
-16 -4 -16 -10z"/>
<path d="M6925 1410 c3 -5 8 -10 11 -10 2 0 4 5 4 10 0 6 -5 10 -11 10 -5 0
-7 -4 -4 -10z"/>
<path d="M5670 1400 c-8 -5 -12 -11 -9 -14 2 -3 11 -1 19 4 8 5 12 11 9 14 -2
3 -11 1 -19 -4z"/>
<path d="M6360 1400 c-8 -5 -12 -11 -9 -14 2 -3 11 -1 19 4 8 5 12 11 9 14 -2
3 -11 1 -19 -4z"/>
<path d="M730 1366 c-23 -38 -34 -47 -23 -20 3 9 -12 3 -41 -17 -49 -35 -50
-37 -37 -57 6 -10 15 -5 36 20 15 18 34 32 40 30 7 -1 22 14 34 34 28 47 20
56 -9 10z"/>
<path d="M5243 1388 c-13 -6 -23 -14 -23 -19 0 -10 40 1 65 18 19 13 19 13 0
12 -11 0 -30 -5 -42 -11z"/>
<path d="M5605 1390 c3 -5 8 -10 11 -10 2 0 4 5 4 10 0 6 -5 10 -11 10 -5 0
-7 -4 -4 -10z"/>
<path d="M7365 1390 c-3 -5 -1 -10 4 -10 6 0 11 5 11 10 0 6 -2 10 -4 10 -3 0
-8 -4 -11 -10z"/>
<path d="M7392 1389 c6 -17 76 -18 89 -2 9 11 2 13 -41 13 -34 0 -50 -4 -48
-11z"/>
<path d="M6197 1350 c3 -11 9 -17 15 -14 5 3 4 12 -3 20 -16 19 -18 18 -12 -6z"/>
<path d="M6335 1360 c-3 -5 -1 -10 4 -10 6 0 11 5 11 10 0 6 -2 10 -4 10 -3 0
-8 -4 -11 -10z"/>
<path d="M6390 1354 c0 -8 5 -12 10 -9 6 4 8 11 5 16 -9 14 -15 11 -15 -7z"/>
<path d="M7016 1362 c-3 -5 1 -9 9 -9 8 0 15 4 15 9 0 4 -4 8 -9 8 -6 0 -12
-4 -15 -8z"/>
<path d="M806 1345 c-11 -8 -17 -17 -14 -20 2 -3 13 4 23 15 21 23 18 25 -9 5z"/>
<path d="M5346 1345 c-3 -9 0 -15 9 -15 8 0 15 7 15 15 0 8 -4 15 -9 15 -5 0
-11 -7 -15 -15z"/>
<path d="M6906 1335 c-6 -17 20 -33 32 -20 4 4 1 10 -6 12 -6 3 -10 9 -6 14 3
5 1 9 -4 9 -6 0 -13 -7 -16 -15z"/>
<path d="M6788 1333 c6 -2 18 -2 25 0 6 3 1 5 -13 5 -14 0 -19 -2 -12 -5z"/>
<path d="M6990 1330 c-13 -8 -13 -10 2 -10 9 0 20 5 23 10 8 13 -5 13 -25 0z"/>
<path d="M6695 1320 c-3 -5 3 -10 14 -10 12 0 21 5 21 10 0 6 -6 10 -14 10 -8
0 -18 -4 -21 -10z"/>
<path d="M5334 1310 c-12 -5 -25 -14 -30 -21 -5 -9 -2 -10 10 -6 10 4 21 7 26
7 4 0 10 7 14 15 3 8 4 15 3 14 -1 0 -12 -4 -23 -9z"/>
<path d="M6860 1310 c-8 -5 -10 -10 -5 -10 6 0 17 5 25 10 8 5 11 10 5 10 -5
0 -17 -5 -25 -10z"/>
<path d="M5142 1293 c-18 -33 -15 -43 16 -43 15 0 22 4 16 8 -7 4 -14 18 -16
32 l-3 25 -13 -22z"/>
<path d="M5176 1295 c7 -17 20 -20 28 -6 3 5 -1 12 -10 15 -22 9 -24 8 -18 -9z"/>
<path d="M5810 1303 c0 -5 6 -17 13 -28 13 -17 14 -16 12 5 -1 22 -25 43 -25
23z"/>
<path d="M6554 1300 c-26 -10 -38 -26 -26 -34 5 -3 20 6 32 19 26 27 25 28 -6
15z"/>
<path d="M7443 1302 c-7 -4 -9 -13 -5 -19 6 -9 11 -6 20 7 13 21 6 26 -15 12z"/>
<path d="M5720 1292 c-14 -2 -32 -6 -40 -9 -8 -3 -26 -8 -40 -10 -13 -2 -29
-8 -35 -12 -5 -5 -22 -11 -37 -15 -14 -3 -34 -9 -44 -13 -13 -5 -15 -3 -9 7 5
8 3 11 -5 8 -19 -6 -23 -25 -7 -31 7 -3 32 -2 55 3 23 4 39 3 36 -1 -3 -5 0
-9 5 -9 6 0 11 6 11 14 0 8 22 18 59 26 32 7 64 16 71 20 20 12 8 25 -20 22z"/>
<path d="M6677 1289 c8 -8 16 -8 30 0 16 9 14 10 -11 11 -22 0 -27 -3 -19 -11z"/>
<path d="M7060 1290 c-13 -8 -12 -10 3 -10 9 0 17 5 17 10 0 12 -1 12 -20 0z"/>
<path d="M4680 1279 c0 -6 -9 -8 -20 -4 -15 5 -18 3 -14 -8 7 -18 44 -10 44 9
0 8 -2 14 -5 14 -3 0 -5 -5 -5 -11z"/>
<path d="M5515 1280 c-3 -6 1 -7 9 -4 18 7 21 14 7 14 -6 0 -13 -4 -16 -10z"/>
<path d="M7210 1281 c0 -5 -3 -16 -6 -25 -5 -13 1 -16 25 -16 25 0 31 4 31 21
0 15 -5 19 -15 15 -8 -3 -15 -1 -15 4 0 6 -4 10 -10 10 -5 0 -10 -4 -10 -9z"/>
<path d="M564 1262 c-18 -13 -17 -14 6 -7 30 9 46 22 27 22 -8 0 -23 -7 -33
-15z"/>
<path d="M4790 1263 c-61 -21 -112 -45 -83 -39 13 2 26 0 29 -5 3 -5 13 -5 24
1 41 22 9 -15 -37 -43 -43 -26 -54 -48 -16 -32 10 5 22 7 26 6 5 -1 5 4 1 10
-5 8 -1 10 14 7 14 -4 19 -2 16 7 -3 7 2 15 10 18 9 4 16 16 16 27 0 12 10 25
25 32 14 6 25 15 25 20 0 4 -1 7 -2 7 -2 -1 -23 -8 -48 -16z"/>
<path d="M6393 1273 c9 -2 23 -2 30 0 6 3 -1 5 -18 5 -16 0 -22 -2 -12 -5z"/>
<path d="M7110 1270 c0 -13 18 -22 24 -11 3 5 -1 11 -9 15 -8 3 -15 1 -15 -4z"/>
<path d="M7580 1270 c0 -11 14 -11 50 0 22 7 21 8 -12 9 -21 1 -38 -3 -38 -9z"/>
<path d="M4955 1260 c-16 -4 -22 -8 -12 -9 9 0 17 -7 17 -13 0 -9 3 -10 8 -2
4 6 16 16 27 22 23 13 7 14 -40 2z"/>
<path d="M6310 1255 c0 -8 5 -15 10 -15 6 0 10 7 10 15 0 8 -4 15 -10 15 -5 0
-10 -7 -10 -15z"/>
<path d="M7015 1260 c-3 -5 -1 -10 4 -10 6 0 11 5 11 10 0 6 -2 10 -4 10 -3 0
-8 -4 -11 -10z"/>
<path d="M7700 1250 c-12 -8 -11 -10 7 -10 12 0 25 5 28 10 8 13 -15 13 -35 0z"/>
<path d="M4867 1239 c-9 -5 -21 -8 -26 -5 -10 7 -48 -20 -40 -28 3 -3 20 -1
38 5 38 13 54 3 26 -17 -18 -13 -17 -14 15 -8 45 9 74 23 46 24 -13 0 -17 5
-13 20 6 22 -15 27 -46 9z"/>
<path d="M5400 1240 c0 -5 5 -10 10 -10 6 0 10 5 10 10 0 6 -4 10 -10 10 -5 0
-10 -4 -10 -10z"/>
<path d="M6195 1240 c-8 -13 25 -13 45 0 12 8 9 10 -12 10 -15 0 -30 -4 -33
-10z"/>
<path d="M6917 1239 c7 -7 15 -10 18 -7 3 3 -2 9 -12 12 -14 6 -15 5 -6 -5z"/>
<path d="M586 1224 c-9 -24 -2 -26 12 -4 7 11 8 20 3 20 -5 0 -12 -7 -15 -16z"/>
<path d="M5890 1230 c0 -5 7 -10 15 -10 8 0 15 5 15 10 0 6 -7 10 -15 10 -8 0
-15 -4 -15 -10z"/>
<path d="M4660 1220 c0 -5 5 -10 11 -10 5 0 7 5 4 10 -3 6 -8 10 -11 10 -2 0
-4 -4 -4 -10z"/>
<path d="M7220 1219 c-14 -4 -40 -7 -58 -8 -18 -1 -31 -4 -28 -9 2 -4 56 -7
120 -6 64 1 116 -2 116 -7 0 -5 -11 -16 -25 -25 -29 -19 -24 -34 10 -34 18 0
22 4 18 19 -7 28 15 64 35 56 11 -4 13 -3 7 3 -12 12 -161 20 -195 11z"/>
<path d="M7575 1223 c-11 -3 -24 -10 -30 -15 -7 -7 -2 -9 15 -4 14 3 31 6 38
6 6 0 12 5 12 10 0 10 -3 11 -35 3z"/>
<path d="M5208 1213 c7 -3 16 -2 19 1 4 3 -2 6 -13 5 -11 0 -14 -3 -6 -6z"/>
<path d="M7467 1203 c-10 -9 -9 -23 1 -23 5 0 9 7 9 15 0 17 -1 18 -10 8z"/>
<path d="M7053 1193 c15 -2 37 -2 50 0 12 2 0 4 -28 4 -27 0 -38 -2 -22 -4z"/>
<path d="M318 1176 c-19 -14 -24 -46 -8 -46 6 0 10 5 10 11 0 7 9 9 24 5 20
-5 24 -2 24 19 0 28 -22 33 -50 11z"/>
<path d="M4575 1175 c-16 -7 -24 -14 -17 -14 6 -1 12 -10 12 -22 0 -11 5 -17
10 -14 6 4 8 11 4 16 -3 6 4 19 17 30 26 22 17 24 -26 4z"/>
<path d="M6905 1180 c-18 -8 -17 -9 8 -9 15 -1 27 4 27 9 0 12 -8 12 -35 0z"/>
<path d="M425 1170 c3 -5 8 -10 11 -10 2 0 4 5 4 10 0 6 -5 10 -11 10 -5 0 -7
-4 -4 -10z"/>
<path d="M587 1165 c3 -8 9 -12 14 -9 12 7 11 11 -5 17 -10 4 -13 1 -9 -8z"/>
<path d="M6838 1173 c6 -2 18 -2 25 0 6 3 1 5 -13 5 -14 0 -19 -2 -12 -5z"/>
<path d="M4988 1163 c7 -3 16 -2 19 1 4 3 -2 6 -13 5 -11 0 -14 -3 -6 -6z"/>
<path d="M7395 1160 c-3 -5 -1 -10 4 -10 6 0 11 5 11 10 0 6 -2 10 -4 10 -3 0
-8 -4 -11 -10z"/>
<path d="M7648 1163 c6 -2 18 -2 25 0 6 3 1 5 -13 5 -14 0 -19 -2 -12 -5z"/>
<path d="M5088 1153 c7 -3 16 -2 19 1 4 3 -2 6 -13 5 -11 0 -14 -3 -6 -6z"/>
<path d="M5580 1150 c0 -5 6 -10 14 -10 8 0 18 5 21 10 3 6 -3 10 -14 10 -12
0 -21 -4 -21 -10z"/>
<path d="M7536 1151 c-5 -8 84 -3 93 5 2 2 -16 4 -42 4 -25 0 -48 -4 -51 -9z"/>
<path d="M607 1143 c-4 -6 2 -22 13 -34 14 -18 19 -20 20 -8 0 22 -25 54 -33
42z"/>
<path d="M908 1123 c7 -3 16 -2 19 1 4 3 -2 6 -13 5 -11 0 -14 -3 -6 -6z"/>
<path d="M5557 1120 c-37 -7 -63 -21 -36 -19 8 0 41 6 74 14 63 14 31 19 -38
5z"/>
<path d="M5766 1122 c-3 -6 -1 -14 5 -17 14 -9 20 -2 10 14 -6 8 -11 9 -15 3z"/>
<path d="M7290 1120 c-8 -5 -12 -12 -9 -15 4 -3 12 1 19 10 14 17 11 19 -10 5z"/>
<path d="M4750 1110 c-18 -12 -2 -12 25 0 13 6 15 9 5 9 -8 0 -22 -4 -30 -9z"/>
<path d="M530 1101 l25 -7 -28 -18 c-15 -10 -26 -21 -23 -23 2 -3 21 6 41 20
34 23 35 25 13 31 -13 3 -30 5 -38 5 -8 -1 -4 -4 10 -8z"/>
<path d="M4995 1071 c-10 -17 12 -21 25 -6 10 12 10 15 -3 15 -9 0 -18 -4 -22
-9z"/>
<path d="M580 1056 c0 -9 5 -16 10 -16 6 0 10 4 10 9 0 6 -4 13 -10 16 -5 3
-10 -1 -10 -9z"/>
<path d="M5110 1059 c0 -5 5 -7 10 -4 6 3 10 8 10 11 0 2 -4 4 -10 4 -5 0 -10
-5 -10 -11z"/>
<path d="M5290 1050 c-8 -5 -10 -10 -5 -10 6 0 17 5 25 10 8 5 11 10 5 10 -5
0 -17 -5 -25 -10z"/>
<path d="M4470 1046 c0 -2 7 -7 16 -10 8 -3 12 -2 9 4 -6 10 -25 14 -25 6z"/>
<path d="M5195 1030 c-7 -12 2 -12 30 0 19 8 19 9 -2 9 -12 1 -25 -3 -28 -9z"/>
<path d="M802 1016 c-36 -21 -38 -27 -4 -15 18 6 32 15 32 20 0 5 -1 9 -2 8
-2 -1 -13 -7 -26 -13z"/>
<path d="M4390 1019 c0 -5 5 -7 10 -4 6 3 10 8 10 11 0 2 -4 4 -10 4 -5 0 -10
-5 -10 -11z"/>
<path d="M1016 1003 c-6 -14 -5 -15 5 -6 7 7 10 15 7 18 -3 3 -9 -2 -12 -12z"/>
<path d="M4930 969 c0 -5 5 -7 10 -4 6 3 10 8 10 11 0 2 -4 4 -10 4 -5 0 -10
-5 -10 -11z"/>
<path d="M4784 938 c-7 -11 18 -10 36 2 11 7 10 9 -8 7 -13 -1 -26 -5 -28 -9z"/>
<path d="M4825 920 c3 -5 8 -10 11 -10 2 0 4 5 4 10 0 6 -5 10 -11 10 -5 0 -7
-4 -4 -10z"/>
<path d="M710 880 c0 -5 9 -10 19 -10 11 0 23 5 26 10 4 6 -5 10 -19 10 -14 0
-26 -4 -26 -10z"/>
<path d="M4375 850 c-17 -6 -16 -7 8 -12 15 -3 27 -2 27 3 0 13 -14 17 -35 9z"/>
<path d="M3915 819 c-9 -26 5 -41 25 -29 8 6 10 10 3 10 -6 0 -9 9 -6 20 7 27
-14 26 -22 -1z"/>
<path d="M4300 832 c0 -5 7 -9 15 -9 8 0 15 4 15 9 0 4 -7 8 -15 8 -8 0 -15
-4 -15 -8z"/>
<path d="M4365 820 c4 -6 11 -8 16 -5 14 9 11 15 -7 15 -8 0 -12 -5 -9 -10z"/>
<path d="M1095 797 c-11 -8 -14 -16 -8 -20 6 -4 18 2 28 13 21 23 8 27 -20 7z"/>
<path d="M4135 800 c-3 -5 3 -10 14 -10 12 0 21 5 21 10 0 6 -6 10 -14 10 -8
0 -18 -4 -21 -10z"/>
<path d="M3805 790 c3 -5 8 -10 11 -10 2 0 4 5 4 10 0 6 -5 10 -11 10 -5 0 -7
-4 -4 -10z"/>
<path d="M3826 775 c-3 -8 -2 -15 3 -15 5 0 14 7 21 15 10 12 10 15 -3 15 -8
0 -17 -7 -21 -15z"/>
<path d="M987 774 c-16 -16 -5 -24 32 -24 36 0 67 15 38 18 -7 1 -23 4 -37 7
-14 4 -29 3 -33 -1z"/>
<path d="M3990 770 c-13 -8 -12 -10 3 -10 9 0 17 5 17 10 0 12 -1 12 -20 0z"/>
<path d="M1245 760 c3 -5 8 -10 11 -10 2 0 4 5 4 10 0 6 -5 10 -11 10 -5 0 -7
-4 -4 -10z"/>
<path d="M3549 763 c-14 -3 -34 -42 -26 -49 1 -1 14 0 30 3 31 6 36 19 10 26
-17 4 -17 5 0 6 9 0 17 6 17 11 0 10 -4 11 -31 3z"/>
<path d="M3720 760 c0 -5 5 -10 11 -10 5 0 7 5 4 10 -3 6 -8 10 -11 10 -2 0
-4 -4 -4 -10z"/>
<path d="M1070 746 c0 -2 7 -7 16 -10 8 -3 12 -2 9 4 -6 10 -25 14 -25 6z"/>
<path d="M3446 741 c-4 -7 -5 -15 -2 -18 9 -9 19 4 14 18 -4 11 -6 11 -12 0z"/>
<path d="M1197 712 c-21 -23 -22 -39 -2 -22 12 10 18 8 35 -11 16 -21 19 -21
20 -6 0 10 -7 20 -16 24 -8 3 -13 12 -10 19 8 20 -8 17 -27 -4z"/>
<path d="M3768 723 c7 -3 16 -2 19 1 4 3 -2 6 -13 5 -11 0 -14 -3 -6 -6z"/>
<path d="M3287 707 c-4 -10 2 -13 19 -9 13 2 24 8 24 13 0 14 -37 10 -43 -4z"/>
<path d="M3462 713 c-12 -2 -20 -8 -17 -13 6 -10 45 -1 45 11 0 5 -1 8 -2 8
-2 -1 -13 -4 -26 -6z"/>
<path d="M1020 689 c-44 -20 -57 -36 -41 -52 13 -13 80 18 88 40 3 7 11 13 19
13 8 0 14 4 14 8 0 13 -40 9 -80 -9z m-5 -39 c-3 -5 -14 -10 -23 -10 -15 0
-15 2 -2 10 20 13 33 13 25 0z"/>
<path d="M3508 683 c6 -2 18 -2 25 0 6 3 1 5 -13 5 -14 0 -19 -2 -12 -5z"/>
<path d="M2778 673 c6 -2 18 -2 25 0 6 3 1 5 -13 5 -14 0 -19 -2 -12 -5z"/>
<path d="M3090 669 c0 -5 5 -7 10 -4 6 3 10 8 10 11 0 2 -4 4 -10 4 -5 0 -10
-5 -10 -11z"/>
<path d="M3436 670 c7 -7 19 -7 35 -1 23 9 22 10 -10 10 -24 1 -32 -2 -25 -9z"/>
<path d="M2718 663 c6 -2 18 -2 25 0 6 3 1 5 -13 5 -14 0 -19 -2 -12 -5z"/>
<path d="M3325 650 c3 -5 11 -10 16 -10 6 0 7 5 4 10 -3 6 -11 10 -16 10 -6 0
-7 -4 -4 -10z"/>
<path d="M2580 640 c-24 -8 -24 -8 5 -8 17 0 39 3 50 8 18 8 18 9 -5 8 -14 0
-36 -4 -50 -8z"/>
<path d="M2850 640 c-9 -6 -10 -10 -3 -10 6 0 15 5 18 10 8 12 4 12 -15 0z"/>
<path d="M3120 620 c0 -5 5 -10 11 -10 5 0 7 5 4 10 -3 6 -8 10 -11 10 -2 0
-4 -4 -4 -10z"/>
<path d="M3670 620 c0 -6 7 -10 15 -10 8 0 15 2 15 4 0 2 -7 6 -15 10 -8 3
-15 1 -15 -4z"/>
<path d="M1151 598 c0 -10 -8 -18 -18 -18 -15 0 -15 -1 0 -18 10 -10 17 -25
17 -32 0 -9 3 -10 9 -4 5 5 6 27 1 49 -4 22 -8 32 -9 23z"/>
<path d="M3048 603 c7 -3 16 -2 19 1 4 3 -2 6 -13 5 -11 0 -14 -3 -6 -6z"/>
<path d="M945 560 c-3 -5 1 -10 9 -10 8 0 18 5 21 10 3 6 -1 10 -9 10 -8 0
-18 -4 -21 -10z"/>
<path d="M2758 558 c-16 -5 -28 -14 -28 -19 0 -13 13 -11 35 5 10 7 27 11 37
8 10 -2 18 1 18 7 0 13 -25 13 -62 -1z"/>
<path d="M3340 560 c0 -5 5 -10 10 -10 6 0 10 5 10 10 0 6 -4 10 -10 10 -5 0
-10 -4 -10 -10z"/>
<path d="M2645 541 c-22 -4 -46 -10 -54 -15 -7 -5 -36 -10 -64 -12 -29 -3 -70
-10 -92 -16 l-40 -12 35 -7 c19 -3 27 -7 17 -8 -9 0 -25 -5 -35 -10 -9 -5 -25
-12 -34 -15 -40 -12 -15 -25 47 -24 36 0 65 4 65 8 0 15 -14 19 -27 9 -10 -9
-13 -8 -13 4 0 8 7 17 15 21 8 3 14 11 13 18 -3 13 30 18 47 7 6 -3 29 -4 52
-1 31 3 42 9 46 24 5 16 12 19 31 16 15 -3 31 1 37 8 6 8 8 13 3 13 -5 -1 -27
-4 -49 -8z"/>
<path d="M855 530 c-8 -13 5 -13 25 0 13 8 13 10 -2 10 -9 0 -20 -4 -23 -10z"/>
<path d="M2825 530 c-3 -5 -1 -10 4 -10 6 0 11 5 11 10 0 6 -2 10 -4 10 -3 0
-8 -4 -11 -10z"/>
<path d="M2380 520 c-9 -6 -10 -10 -3 -10 6 0 15 5 18 10 8 12 4 12 -15 0z"/>
<path d="M2742 521 c-11 -6 -9 -9 7 -14 12 -3 22 1 25 9 6 16 -12 18 -32 5z"/>
<path d="M3076 521 c-4 -7 -5 -15 -2 -18 9 -9 19 4 14 18 -4 11 -6 11 -12 0z"/>
<path d="M2223 513 c-27 -10 -11 -18 37 -18 28 0 50 3 50 7 0 5 -11 8 -24 8
-13 0 -30 2 -38 4 -7 3 -19 2 -25 -1z"/>
<path d="M2170 500 c-12 -7 -10 -9 7 -7 12 0 19 5 17 9 -6 10 -6 10 -24 -2z"/>
<path d="M2949 500 c-19 -13 -8 -18 21 -10 19 4 21 7 9 12 -9 3 -22 2 -30 -2z"/>
<path d="M2143 478 c4 -10 -1 -18 -14 -21 -10 -3 -19 -11 -19 -19 0 -11 2 -11
9 1 7 11 9 11 14 0 5 -11 8 -10 17 4 6 9 22 17 35 17 14 0 25 4 25 9 0 4 -12
6 -26 3 -16 -3 -30 1 -36 9 -8 11 -9 11 -5 -3z"/>
<path d="M2748 473 c-20 -5 -24 -23 -5 -23 17 0 41 17 31 22 -5 2 -17 3 -26 1z"/>
<path d="M2840 469 c0 -5 5 -7 10 -4 6 3 10 8 10 11 0 2 -4 4 -10 4 -5 0 -10
-5 -10 -11z"/>
<path d="M1912 454 c-10 -12 -10 -14 2 -14 17 0 30 16 19 23 -5 3 -14 -1 -21
-9z"/>
<path d="M2575 462 c-9 -9 -5 -42 4 -42 11 0 24 19 27 36 2 11 -22 15 -31 6z"/>
<path d="M3130 460 c-12 -8 -12 -10 5 -10 11 0 27 5 35 10 12 8 12 10 -5 10
-11 0 -27 -5 -35 -10z"/>
<path d="M2658 453 c-10 -2 -18 -9 -18 -14 0 -14 16 -11 30 6 7 8 11 14 9 14
-2 -1 -12 -3 -21 -6z"/>
<path d="M2505 430 c3 -5 10 -10 16 -10 5 0 9 5 9 10 0 6 -7 10 -16 10 -8 0
-12 -4 -9 -10z"/>
<path d="M2966 431 c-4 -5 3 -7 14 -4 23 6 26 13 6 13 -8 0 -17 -4 -20 -9z"/>
<path d="M1910 420 c0 -5 -12 -10 -27 -10 -18 0 -24 -3 -17 -10 7 -7 21 -6 42
3 18 7 29 16 25 20 -10 10 -23 8 -23 -3z"/>
<path d="M1960 420 c-8 -5 -11 -12 -7 -17 5 -4 11 -3 15 3 4 6 14 14 22 17 13
5 13 5 0 6 -8 0 -22 -3 -30 -9z"/>
<path d="M1501 393 c0 -12 2 -14 6 -4 5 11 7 11 15 0 8 -12 9 -12 6 0 -6 22
-28 25 -27 4z"/>
<path d="M1255 380 c-7 -12 2 -12 30 0 19 8 19 9 -2 9 -12 1 -25 -3 -28 -9z"/>
<path d="M2695 380 c-3 -5 -2 -10 4 -10 5 0 13 5 16 10 3 6 2 10 -4 10 -5 0
-13 -4 -16 -10z"/>
<path d="M2945 380 c-16 -7 -17 -9 -3 -9 9 -1 20 4 23 9 7 11 7 11 -20 0z"/>
<path d="M1348 353 c-20 -5 -23 -18 -7 -28 5 -4 18 0 27 8 9 8 23 12 30 10 6
-3 12 0 12 6 0 11 -29 13 -62 4z"/>
<path d="M2490 319 c0 -5 5 -7 10 -4 6 3 10 8 10 11 0 2 -4 4 -10 4 -5 0 -10
-5 -10 -11z"/>
<path d="M2200 290 c0 -5 6 -10 14 -10 8 0 18 5 21 10 3 6 -3 10 -14 10 -12 0
-21 -4 -21 -10z"/>
<path d="M2145 280 c-3 -5 1 -10 9 -10 9 0 16 5 16 10 0 6 -4 10 -9 10 -6 0
-13 -4 -16 -10z"/>
<path d="M2030 270 c0 -11 14 -11 50 0 22 7 21 8 -12 9 -21 1 -38 -3 -38 -9z"/>
</g>
</svg>
